<svg xmlns="http://www.w3.org/2000/svg" style="display: none;">
    <symbol id="icon-buy" viewBox="0 0 25 24">
        <path d="M0.290209 8.27066L2.49691 6.06396C2.67495 5.88832 2.91233 5.78576 3.16225 5.7765C3.41217 5.76725 3.65649 5.85197 3.84703 6.01395C4.1412 6.26434 4.51871 6.39508 4.90473 6.38027C5.29075 6.36545 5.65712 6.20615 5.93122 5.93394C6.20329 5.65986 6.3625 5.2936 6.37732 4.90769C6.39213 4.52179 6.26148 4.14439 6.01123 3.85025C5.84925 3.65971 5.76453 3.41539 5.77378 3.16547C5.78304 2.91555 5.8856 2.67817 6.06124 2.50013L8.26994 0.290928C8.45659 0.104631 8.70954 0 8.97325 0C9.23697 0 9.48991 0.104631 9.67657 0.290928L13.1944 3.80825C13.4116 4.02622 13.5754 4.2915 13.6729 4.58332C13.6919 4.63943 13.7236 4.6904 13.7655 4.73229C13.8074 4.77417 13.8583 4.80585 13.9145 4.82484C14.2064 4.92241 14.4717 5.08639 14.6895 5.30389L23.7104 14.3247C23.8967 14.5114 24.0013 14.7643 24.0013 15.028C24.0013 15.2917 23.8967 15.5447 23.7104 15.7313L21.5012 17.938C21.3231 18.1137 21.0857 18.2162 20.8358 18.2255C20.5859 18.2348 20.3416 18.15 20.151 17.9881C19.8576 17.7356 19.4795 17.6034 19.0927 17.618C18.7059 17.6325 18.3389 17.7927 18.0652 18.0664C17.7914 18.3401 17.6313 18.7071 17.6167 19.0939C17.6022 19.4808 17.7344 19.8588 17.9868 20.1522C18.1488 20.3428 18.2335 20.5871 18.2243 20.837C18.215 21.087 18.1125 21.3243 17.9368 21.5024L15.7301 23.7091C15.5435 23.8954 15.2905 24 15.0268 24C14.7631 24 14.5101 23.8954 14.3235 23.7091L5.30267 14.6882C5.08529 14.4705 4.92132 14.2054 4.82362 13.9137C4.80471 13.8574 4.77301 13.8062 4.73103 13.7643C4.68904 13.7223 4.63789 13.6906 4.5816 13.6717C4.28993 13.5741 4.02482 13.4103 3.80703 13.1931L0.289707 9.67529C0.104088 9.48865 -6.67572e-05 9.2361 2.67029e-05 8.97287C0.000120163 8.70964 0.104454 8.45716 0.290209 8.27066ZM11.7098 6.78802C11.7841 6.86234 11.8723 6.92129 11.9693 6.9615C12.0664 7.00172 12.1705 7.02242 12.2756 7.02242C12.3806 7.02242 12.4847 7.00172 12.5818 6.9615C12.6789 6.92129 12.7671 6.86234 12.8414 6.78802L13.4169 6.21247C13.5633 6.06167 13.6445 5.85933 13.6429 5.64917C13.6413 5.439 13.5571 5.2379 13.4085 5.08933C13.2598 4.94075 13.0587 4.85662 12.8485 4.85513C12.6384 4.85365 12.436 4.93491 12.2853 5.08137L11.7098 5.65642C11.6354 5.73072 11.5765 5.81892 11.5363 5.916C11.4961 6.01309 11.4754 6.11714 11.4754 6.22222C11.4754 6.3273 11.4961 6.43136 11.5363 6.52844C11.5765 6.62552 11.6354 6.71373 11.7098 6.78802ZM9.50955 8.98822C9.65958 9.13815 9.863 9.22237 10.0751 9.22237C10.2872 9.22237 10.4906 9.13815 10.6407 8.98822L11.1907 8.43817C11.265 8.36387 11.3239 8.27566 11.3642 8.17858C11.4044 8.0815 11.4251 7.97745 11.4251 7.87237C11.4251 7.76729 11.4044 7.66324 11.3642 7.56616C11.3239 7.46908 11.265 7.38087 11.1907 7.30657C11.0406 7.15651 10.8371 7.07221 10.6249 7.07221C10.5198 7.07221 10.4158 7.0929 10.3187 7.13312C10.2216 7.17333 10.1334 7.23227 10.0591 7.30657L9.50905 7.85662C9.43448 7.93091 9.3753 8.01919 9.33491 8.11639C9.29451 8.21359 9.2737 8.31781 9.27365 8.42307C9.2736 8.52833 9.29433 8.63257 9.33464 8.7298C9.37495 8.82704 9.43405 8.91537 9.50855 8.98973L9.50955 8.98822ZM7.30935 11.1884C7.38365 11.2627 7.47186 11.3217 7.56894 11.3619C7.66602 11.4021 7.77007 11.4228 7.87515 11.4228C7.98024 11.4228 8.08429 11.4021 8.18137 11.3619C8.27845 11.3217 8.36666 11.2627 8.44096 11.1884L8.99101 10.6384C9.1374 10.4876 9.21857 10.2852 9.21699 10.0751C9.21541 9.86491 9.13119 9.66381 8.98255 9.51523C8.83391 9.36665 8.63277 9.28253 8.42261 9.28104C8.21244 9.27955 8.01014 9.36082 7.8594 9.50727L7.30935 10.0573C7.23457 10.1315 7.17518 10.2197 7.13457 10.3169C7.09395 10.414 7.07293 10.5183 7.0727 10.6236C7.07247 10.7289 7.09303 10.8333 7.13321 10.9306C7.17339 11.028 7.2324 11.1164 7.30685 11.1909L7.30935 11.1884ZM5.08765 13.4156C5.16194 13.4899 5.25015 13.5489 5.34723 13.5891C5.44431 13.6293 5.54837 13.65 5.65345 13.65C5.75853 13.65 5.86259 13.6293 5.95967 13.5891C6.05675 13.5489 6.14496 13.4899 6.21925 13.4156L6.7913 12.8406C6.86718 12.7665 6.92757 12.6781 6.96897 12.5805C7.01036 12.4828 7.03194 12.378 7.03245 12.2719C7.03296 12.1659 7.01238 12.0608 6.97191 11.9628C6.93145 11.8648 6.87191 11.7758 6.79675 11.701C6.72158 11.6262 6.6323 11.5671 6.53409 11.5271C6.43588 11.4871 6.33071 11.467 6.22468 11.4681C6.11864 11.4691 6.01387 11.4912 5.91645 11.5331C5.81903 11.5749 5.73091 11.6357 5.6572 11.712L5.08465 12.2865C5.01037 12.3609 4.95146 12.4491 4.91128 12.5462C4.87111 12.6433 4.85045 12.7473 4.8505 12.8524C4.85054 12.9575 4.87129 13.0616 4.91155 13.1586C4.95181 13.2557 5.0108 13.3439 5.08515 13.4181L5.08765 13.4156Z"/>
    </symbol>

    <symbol id="icon-email" viewBox="0 0 15.9 11.5">
        <path d="M15.9,11.5H0V0h15.9V11.5z M0.5,11h14.9V0.8L8,6.1L0.5,0.8V11z M1.1,0.5L8,5.4l6.9-4.9H1.1z"/>
    </symbol>


    <symbol id="icon-logo-red" viewBox="0 0 150.96 131.43" fill="#A71A37">
        <path d="M95.9,98.9l.7.7,1.7-1.7v10.3h2.2V96.6H98.2Z" transform="translate(-0.64)" style="fill:#a71a37"/>
        <path d="M107.8,100a17.67,17.67,0,0,0,1.7-1.2,2.93,2.93,0,0,0,.8-1.9,2.88,2.88,0,0,0-.9-2,3.62,3.62,0,0,0-2.7-1,4.3,4.3,0,0,0-2.8,1.1,2.81,2.81,0,0,0-.9,2.3c0,1.1.8,2.2,2.3,3.2a6.92,6.92,0,0,0-2.6,2.5,3.64,3.64,0,0,0-.4,2.7,3.38,3.38,0,0,0,1.5,2,4.47,4.47,0,0,0,2.8.9,4.72,4.72,0,0,0,3.3-1.1,4.28,4.28,0,0,0,1.2-3.2,4,4,0,0,0-1-2.5A9,9,0,0,0,107.8,100Zm-3.1-3.3a1.88,1.88,0,0,1,1.9-1.8,1.51,1.51,0,0,1,1.4.7,2.35,2.35,0,0,1,.5,1.3,3.41,3.41,0,0,1-1.7,2.6C105.5,98.5,104.7,97.6,104.7,96.7Zm3.5,9.7a2.14,2.14,0,0,1-1.8.9,2.09,2.09,0,0,1-1.6-.8,2.84,2.84,0,0,1-.9-1.7,2.63,2.63,0,0,1,.3-2.1,4.94,4.94,0,0,1,1.6-1.9l.6.4.6.4.9.9a2.88,2.88,0,0,1,.9,2.1A1.93,1.93,0,0,1,108.2,106.4Z"
              transform="translate(-0.64)" style="fill:#a71a37"/>
        <path d="M119.3,96.6h-1.7L111.2,108h6v2.5h2.2V108h2.1v-.9h-2.1l-.1-10.5Zm-2.2,10.5h-4.2l4.2-7.8Z"
              transform="translate(-0.64)" style="fill:#a71a37"/>
        <path d="M128.1,99.9a4.09,4.09,0,0,0-2.2-.3,3.72,3.72,0,0,0-1.9.9,13.69,13.69,0,0,1,1.6-3.2,9.74,9.74,0,0,0,1-1.5l.5-.8.5-.8h-1.3a7.64,7.64,0,0,1-.9.9l-.4.5-.4.6a17.68,17.68,0,0,0-1.6,2.2,11.56,11.56,0,0,0-1.7,5.8,4.51,4.51,0,0,0,1.2,3,4.34,4.34,0,0,0,3.2,1.1,5.39,5.39,0,0,0,3.5-1.3,4.65,4.65,0,0,0,1.2-3.1,5,5,0,0,0-.8-2.6A2.6,2.6,0,0,0,128.1,99.9Zm-.2,6.4a2.22,2.22,0,0,1-2,1,2.5,2.5,0,0,1-1.8-.8,3.49,3.49,0,0,1-.8-2.4,4.69,4.69,0,0,1,.7-2.8,2.06,2.06,0,0,1,1.9-1,2.37,2.37,0,0,1,1.9,1.1,3.35,3.35,0,0,1,.6,2.4A4.19,4.19,0,0,1,127.9,106.3Z"
              transform="translate(-0.64)" style="fill:#a71a37"/>
        <path d="M94.4,69.1V65.7H98a4.87,4.87,0,0,0,5.2-4.7,4.71,4.71,0,0,0-3-4.8,3.57,3.57,0,0,0-2.3-.5H91.4V69.1Zm0-10.7h3.5a2.24,2.24,0,0,1,2.3,2.2v.1A2.22,2.22,0,0,1,98.1,63H94.4Z"
              transform="translate(-0.64)" style="fill:#a71a37"/>
        <path d="M117.2,69.1l-.2-.4-5.7-12.8v-.2h-2.8v.2l-5.7,12.8-.2.4h2.9l.1-.1.9-2.2H113l1,2.2.1.1Zm-9.5-4.9,2.2-5.3,2.2,5.3Z"
              transform="translate(-0.64)" style="fill:#a71a37"/>
        <path d="M142.5,69.1a5.45,5.45,0,0,0,2.2-.5,4.85,4.85,0,0,0-2.2-9.3h-3.7V55.8H136V69.2h6.5Zm-3.7-7.2h3.7a2.22,2.22,0,0,1,2.2,2.2,2.33,2.33,0,0,1-2.2,2.4h-3.6l-.1-4.6Z"
              transform="translate(-0.64)" style="fill:#a71a37"/>
        <path d="M151.2,55.7h-2.5V69.1h2.9V55.7Z" transform="translate(-0.64)" style="fill:#a71a37"/>
        <path d="M133.1,68.9V55.7h-2.9l-.1.2-4.2,6-4.3-6-.1-.2h-2.8V69.1h2.8V60.3l3.8,5.3.1.1h1.2l.1-.1,3.8-5.3v8.8h2.8v-.2Z"
              transform="translate(-0.64)" style="fill:#a71a37"/>
        <path d="M77.8,69.1h9v.1l.1,1.6h2.7V66.5H87.9V55.7H78.2L76.8,66.4H75v4.3h2.7Zm2.8-10.8h4.3v8.2H79.5Z"
              transform="translate(-0.64)" style="fill:#a71a37"/>
        <path d="M98.6,89.2l-2.3-5.1h-.9l-2.3,5.1H94l1.7-4.3h.1l1.8,4.3Z" transform="translate(-0.64)"
              style="fill:#a71a37"/>
        <path d="M110,89.2V84.1h-1l-1.7,2.5-1.8-2.5h-1v5.1h.9V85.4l1.7,2.4h.3l1.7-2.4v3.8Z" transform="translate(-0.64)"
              style="fill:#a71a37"/>
        <path d="M130.6,84.8a2.45,2.45,0,0,1,1.6.6l.6-.6a2.94,2.94,0,0,0-2.2-.9,2.73,2.73,0,0,0-1.9.8,2.78,2.78,0,0,0,0,3.8,2.93,2.93,0,0,0,1.9.8,2.74,2.74,0,0,0,2.2-.9l-.6-.6a2.45,2.45,0,0,1-1.6.6,1.43,1.43,0,0,1-1.2-.6,1.22,1.22,0,0,1-.5-1.2,1.66,1.66,0,0,1,.5-1.2A2,2,0,0,1,130.6,84.8Z"
              transform="translate(-0.64)" style="fill:#a71a37"/>
        <path d="M113.4,89.3a2.62,2.62,0,0,0,2.8-2.6,2.88,2.88,0,0,0-.9-2.1,2.17,2.17,0,0,0-2-.8,2.32,2.32,0,0,0-1.9.9,3,3,0,0,0-.8,1.8,2.41,2.41,0,0,0,.7,1.8A3,3,0,0,0,113.4,89.3Zm-1.3-4a1.56,1.56,0,0,1,1.2-.6,1.79,1.79,0,0,1,1.8,1.8,1.66,1.66,0,0,1-.5,1.2,1.76,1.76,0,0,1-1.3.6,1.94,1.94,0,0,1-1.8-1.8A4.45,4.45,0,0,1,112.1,85.3Z"
              transform="translate(-0.64)" style="fill:#a71a37"/>
        <path d="M142.9,86.4c.1-.1.3-.2.4-.4a1.42,1.42,0,0,0,.2-.6,1,1,0,0,0-.4-.9,1.67,1.67,0,0,0-1.1-.4h-2.7v5.1h2.8a1.66,1.66,0,0,0,1.2-.5,1.59,1.59,0,0,0,.5-1,1.61,1.61,0,0,0-.3-.9C143.3,86.6,143.1,86.4,142.9,86.4Zm-2.8-1.5h1.6a1.42,1.42,0,0,1,.6.2.76.76,0,0,1,.2.4c0,.2-.1.3-.2.5s-.3.1-.4.2h-1.8V84.9Zm2.5,3.2a.91.91,0,0,1-.7.3h-1.8V86.8H142a.71.71,0,0,1,.6.3c.1.2.2.3.2.5A.76.76,0,0,1,142.6,88.1Z"
              transform="translate(-0.64)" style="fill:#a71a37"/>
        <path d="M122.8,88.4a2.52,2.52,0,0,0,2,.9,2.66,2.66,0,0,0,2-.9,3,3,0,0,0,0-3.8,2.73,2.73,0,0,0-1.9-.8,2.52,2.52,0,0,0-2,.9,3,3,0,0,0-.8,1.8A2.28,2.28,0,0,0,122.8,88.4Zm.6-3.1a1.76,1.76,0,0,1,1.3-.6,1.56,1.56,0,0,1,1.2.6,1.22,1.22,0,0,1,.5,1.2,1.66,1.66,0,0,1-.5,1.2,1.56,1.56,0,0,1-1.2.6,1.94,1.94,0,0,1-1.3-.6A1.82,1.82,0,0,1,123.4,85.3Z"
              transform="translate(-0.64)" style="fill:#a71a37"/>
        <path d="M146.1,84.1l-2.3,5.1h1l.4-.9H148l.4.9h.9L147,84.1Zm-.6,3.3.9-2.5,1,2.5Z" transform="translate(-0.64)"
              style="fill:#a71a37"/>
        <path d="M89,86.4c.1-.1.3-.2.4-.4s.1-.4.2-.6a1,1,0,0,0-.4-.9,1.86,1.86,0,0,0-1.1-.4H85.4v5.1h2.8a1.66,1.66,0,0,0,1.2-.5,1.59,1.59,0,0,0,.5-1,1.61,1.61,0,0,0-.3-.9C89.4,86.6,89.3,86.4,89,86.4Zm-2.7-1.5h1.6a.69.69,0,0,1,.7.6c0,.2-.1.3-.2.5a.6.6,0,0,0-.4.1H86.2l.1-1.2Zm2.4,3.2a.86.86,0,0,1-.6.3H86.3V86.8h1.9a.71.71,0,0,1,.6.3c.2.1.2.3.2.5A.55.55,0,0,1,88.7,88.1Z"
              transform="translate(-0.64)" style="fill:#a71a37"/>
        <path d="M121.3,89.2V84.1h-.9V86h-2.7V84.1h-.9v5.1h.9V86.7h2.7v2.5Z" transform="translate(-0.64)"
              style="fill:#a71a37"/>
        <path d="M103.8,86.6a2.73,2.73,0,0,0-2.7-2.7,2.52,2.52,0,0,0-2,.9,2.87,2.87,0,0,0-.7,1.8,2.41,2.41,0,0,0,.7,1.8,2.69,2.69,0,0,0,3.8.2l.1-.1A3.15,3.15,0,0,0,103.8,86.6Zm-1.4,1.2a1.56,1.56,0,0,1-1.2.6,1.76,1.76,0,0,1-1.3-.6,2.08,2.08,0,0,1-.5-1.2,1.35,1.35,0,0,1,.5-1.2,1.76,1.76,0,0,1,1.3-.6,1.43,1.43,0,0,1,1.2.6,1.58,1.58,0,0,1,.5,1.2A1.66,1.66,0,0,1,102.4,87.8Z"
              transform="translate(-0.64)" style="fill:#a71a37"/>
        <path d="M135.8,84a2.66,2.66,0,0,0-2,.9,3,3,0,0,0-.8,1.8,2.17,2.17,0,0,0,.8,1.8,2.52,2.52,0,0,0,2,.9,2.66,2.66,0,0,0,2-.9,2.76,2.76,0,0,0,.1-3.7l-.1-.1A2.61,2.61,0,0,0,135.8,84Zm1.3,3.9a1.76,1.76,0,0,1-1.3.6,1.94,1.94,0,0,1-1.3-.6,2.08,2.08,0,0,1-.5-1.2,1.66,1.66,0,0,1,.5-1.2,1.76,1.76,0,0,1,1.3-.6,1.94,1.94,0,0,1,1.3.6,1.58,1.58,0,0,1,.5,1.2A1.29,1.29,0,0,1,137.1,87.9Z"
              transform="translate(-0.64)" style="fill:#a71a37"/>
        <path d="M83.9,88.1a.53.53,0,0,0-.6.6.65.65,0,0,0,.6.6.86.86,0,0,0,.7-.6C84.6,88.3,84.3,88.1,83.9,88.1Z"
              transform="translate(-0.64)" style="fill:#a71a37"/>
        <path d="M80,86.6l-1.9-2.5h-.9v5.1H78V85.4h.1l1.7,2.4h.3l1.7-2.4v3.8h.9V84.1h-1Z" transform="translate(-0.64)"
              style="fill:#a71a37"/>
        <path d="M91.1,88.1c-.4,0-.7.2-.7.6s.3.6.7.6a.6.6,0,1,0,0-1.2Z" transform="translate(-0.64)" style="fill:#a71a37"/>
        <path d="M110.9,74.6H110l-1.8,2.5-1.8-2.5h-.9v5.1h.9V75.9l1.7,2.5h.3l1.7-2.5h.1v3.8h.9V74.6Z"
              transform="translate(-0.64)" style="fill:#a71a37"/>
        <path d="M120.3,76.5h-2.8V74.6h-.9v5.1h.9V77.4h2.8v2.3h.9V74.6h-.9Z" transform="translate(-0.64)"
              style="fill:#a71a37"/>
        <path d="M122,74.6v5.1h.9l2.9-3.8v3.8h.9V74.6h-.8L123,78.4V74.6Z" transform="translate(-0.64)"
              style="fill:#a71a37"/>
        <path d="M104.4,79.7V74.6h-.9l-2.8,3.8V74.6h-.9v5.1h.9l2.9-3.8v3.8Z" transform="translate(-0.64)"
              style="fill:#a71a37"/>
        <path d="M115.7,75.5v-.9h-4v5.1h4.1v-.9h-3.1V77.4h2.8v-.9h-2.8V75.4h3Z" transform="translate(-0.64)"
              style="fill:#a71a37"/>
        <path d="M129.4,31.3a2.88,2.88,0,0,0,2.1-.9l-.6-.6a2,2,0,0,1-1.5.6,1.66,1.66,0,0,1-1.2-.5,1.94,1.94,0,0,1-.6-1.3,1.43,1.43,0,0,1,.6-1.2,1.22,1.22,0,0,1,1.2-.5,2,2,0,0,1,1.5.6l.6-.6a2.88,2.88,0,0,0-2.1-.9,2.32,2.32,0,0,0-1.9.9,2.62,2.62,0,0,0-.9,1.8A3.08,3.08,0,0,0,129.4,31.3Z"
              transform="translate(-0.64)" style="fill:#a71a37"/>
        <path d="M102,28.9h2.8v2.3h.9V26h-.9v2H102V26h-1v5.1h.9V28.9Z" transform="translate(-0.64)" style="fill:#a71a37"/>
        <path d="M125.7,30.7a1.94,1.94,0,0,0,.6-1.3,1.85,1.85,0,0,0-.5-1.2,2,2,0,0,0-1.5-.6h-1.5V26.2h-.9v5h2.5A3.49,3.49,0,0,0,125.7,30.7Zm-2.9-2.4h1.4a1.61,1.61,0,0,1,.9.3,1.14,1.14,0,0,1,.3.8,1.22,1.22,0,0,1-.4.9.91.91,0,0,1-.7.3h-1.6Z"
              transform="translate(-0.64)" style="fill:#a71a37"/>
        <path d="M80.1,30.3h2.8l.4.9h1L82,26H81l-2.2,5.1h.9ZM81.4,27h0l1.1,2.5H80.4Z" transform="translate(-0.64)"
              style="fill:#a71a37"/>
        <path d="M107.4,26.9h3V26h-4v5.1h.9V26.9Z" transform="translate(-0.64)" style="fill:#a71a37"/>
        <path d="M133.1,28.9h1.1l1.4,2.3h1.1L135,28.5l1.5-2.5h-1l-1.3,2h-1.1V26h-.9v5.1h.9Z" transform="translate(-0.64)"
              style="fill:#a71a37"/>
        <path d="M141.2,27.4v3.7h.9V26h-.8l-3,3.8V26h-.8v5.1h.8Z" transform="translate(-0.64)" style="fill:#a71a37"/>
        <path d="M146.6,24.6H144v.7h2.6Z" transform="translate(-0.64)" style="fill:#a71a37"/>
        <path d="M146.7,27.4v3.7h.9V26h-.9l-2.8,3.8V26H143v5.1h.9Z" transform="translate(-0.64)" style="fill:#a71a37"/>
        <path d="M90.4,31.1l1.5-2,1.4,2h1.1l-2-2.7,1.8-2.5h-1l-1.3,1.9L90.6,26H89.5l1.8,2.5-1.8,2.7h.9Z"
              transform="translate(-0.64)" style="fill:#a71a37"/>
        <path d="M96.3,30.3H99l.4.9h1L98.2,26h-.9L95,31.1h.9ZM97.6,27l1.1,2.5H96.6Z" transform="translate(-0.64)"
              style="fill:#a71a37"/>
        <path d="M118.4,27h0l1.8,4.2h1L119,26h-1l-2.2,5.1h.9Z" transform="translate(-0.64)" style="fill:#a71a37"/>
        <path d="M85.8,29.8h1.6a1.87,1.87,0,0,0,1.9-1.7V28a2,2,0,0,0-1.9-1.9H85v5h.9Zm0-2.8h1.5a1.61,1.61,0,0,1,.9.3,1.14,1.14,0,0,1,.3.8,1,1,0,0,1-1,1H85.9V27Z"
              transform="translate(-0.64)" style="fill:#a71a37"/>
        <path d="M115.1,30.4H112V29h2.7v-.9H112V27h3V26h-4v5.1h4.1Z" transform="translate(-0.64)" style="fill:#a71a37"/>
        <path d="M112.9,36.3v.2l-5.7,12.8-.2.4h3.1v-.2l.9-2.2h6.5l.9,2.2.2.2h2.9l-.2-.4-5.7-12.8v-.2Zm3.6,8.3h-4.3l2.2-5.3Z"
              transform="translate(-0.64)" style="fill:#a71a37"/>
        <path d="M94.5,36.5V49.6h10.7V47H97.3V44h6.9V41.3H97.3V38.8H105V36.2H94.4v.3Z" transform="translate(-0.64)"
              style="fill:#a71a37"/>
        <path d="M138.1,49.6V46.2h3.6a4.93,4.93,0,0,0,5.1-4.8v-.1a5.27,5.27,0,0,0-2.8-4.6,5.56,5.56,0,0,0-2.3-.5h-6.5V49.6Zm0-10.8h3.5a2.24,2.24,0,0,1,2.3,2.2v.2a2.22,2.22,0,0,1-2.1,2.3H138l.1-4.7Z"
              transform="translate(-0.64)" style="fill:#a71a37"/>
        <path d="M84.4,49.6h2.9V38.8H92V36.2H79.7v2.6h4.8V49.6Z" transform="translate(-0.64)" style="fill:#a71a37"/>
        <path d="M125.3,49.6h2.9V38.8H133V36.2H120.6v2.6h4.8V49.6Z" transform="translate(-0.64)" style="fill:#a71a37"/>
        <path d="M48.56,87.79c2.7,3.59,6.88,9.27,6.88,11.36a3,3,0,0,1-.3,1.29,3.53,3.53,0,0,1-.8,1l-.39.3c.6,1.1,1.19,2.09,1.7,3.09.59,1.2,1.09,2.29,1.39,3.09a2.74,2.74,0,0,1,.29,1.19,2.66,2.66,0,0,1-.19,1.2c-.4.8-4.49,3.59-6.28,4.88.3.7.5,1.3.69,1.79a2.58,2.58,0,0,1,.31,1.2,2.55,2.55,0,0,1-.31,1.2c-.49.79-6.17,3.19-8.77,4.28.31,2.09-.29,2.4-2,3.19-2.69,1.3-7.17,3.29-8.47,3.89a8.73,8.73,0,0,1-2.78.69,6.54,6.54,0,0,1-2.69-.89c-1-.5-2.2-1.3-3.5-2a30.59,30.59,0,0,1-3.28-2.29,5.32,5.32,0,0,1-1.79-1.89,3.3,3.3,0,0,1-.1-2.19,6.13,6.13,0,0,1,.29-1c-1.39-.79-6.58-3.39-6.67-5.08a8.29,8.29,0,0,1,1.4-3.39,14.65,14.65,0,0,1-1.31-1.3,23.3,23.3,0,0,1-1.58-1.79,3.89,3.89,0,0,1-.51-.89,3.44,3.44,0,0,1-.1-1c.1-1.1,2.6-4.48,3.79-6.28a15,15,0,0,1-1.09-1.39,2.31,2.31,0,0,1-.51-1.6,2.14,2.14,0,0,1,.7-1.49c2.6-3.59,5.49-6.68,8.38-10,.49-.6.49-.6-.1-1h-.21l-.1-.09h-.19l-.1-.1-.1-.1-.1-.1H20l-.1-.1-.1-.1-.1-.11h0l-.6-.89L19,84.3l-.11-.1-.1-.1V84h-.2v-.1h0v-.09a.1.1,0,0,0-.1-.1V83.5h0v-.79h0V80.82c0-.9.6-.51.9-.21,6.18,5.89,14.75,6.58,22.72,5,4.58-1,12.86-3.79,16.14-7.38.31-.29.6.1.4.5l-.09.2c0,.1-.11.1-.11.2s-.1.1-.1.2h0l-.1.4c0,.1-.1.1-.1.2s-.1.1-.1.2l-.1.19-.09.2-.1.21-.1.2-.1.19v.1l-.1.1c0,.1-.11.1-.11.2l-.1.2-.09.1-.4-.1-.1.1-.1.1-.1.1-.1.1-1.49.5-.2.1-.1.1-.11.1-.19.1-.1.09-.1.1-.1.1-.1.1-.1.1v.21c-.1.1-.1.1-.2.1l-.1.09-.1.1-.1.1c-.1,0-.1.1-.2.1H53l-.1.1-.09.1c-.11,0-.11.1-.21.1h-.1l-.1.1-.1.1-.19.1-.1.1-.1.1c-.1,0-.2.1-.31.2h-.1v.09c-.09.11-.19.11-.29.21h-.1l-.1.1-.3.1h-.1l-.1.1h-.1a6,6,0,0,0-.8.39l-.2.1h0l-.29.1c-.1,0-.2.11-.3.11-.6.29-.5.39,0,1l-.21.3Zm-13,1.49h.5c.3,0,.5.11.5.3.7,3.89,1.49,7.88,2.09,11.66,2.29,13,5.18,13.26-6.77,17.94a4.55,4.55,0,0,1-2,.5,4,4,0,0,1-1.79-.5c-7.17-3.29-7.77-3.19-5.88-10.26s4.18-13,6.08-19.74c.1-.39.2-.39.79-.3h.41c.59.1.59.1.49.61s-.1,1.19-.2,1.89a11,11,0,0,0-.09,3.09c.19.7.59.7.89.1a17.38,17.38,0,0,0,.7-3.09q.15-1,.3-1.8c.1-.4,0-.5.59-.4s.6.11.6.5c.1.6.2,1.5.3,2.6.2,2.09.5,4.28.9,6.37.4,1.5.8,1.5,1,0a47.74,47.74,0,0,0-.19-6.47c-.1-1-.1-1.7-.2-2.3.1-.8.1-.7,1-.7ZM40,89l.69-.1c.8-.09,1-.09,1.3.51.4.89,1,2.19,1.79,4.08s1.7,4.18,2.69,6.58,1.8,4.18,2.3,5.78,1.1,2.39-.5,3.09c-1.19.59-3.09,1.29-5.08,2.09a1.27,1.27,0,0,0-.1-.6c-.9-7-2.79-13.75-4.39-20.43-.2-.8,0-.8,1.3-1Zm5.08-1,.59-.2c.51-.2.7-.1,1,.39,2.2,3.3,6.18,9.28,6.09,10.77-.11.69-1.6,2.1-2.89,3.29-1.9-4.29-4-8.77-5.89-13-.4-.79-.3-.79,1-1.19l.1-.1Zm7.07-16.44c.61-.4,1-.5.7.09-3.29,6.19-30.39,14.75-34.28,2.1-.1-1.1.7-2.19,1.7-.9,6.48,8.77,24.41,3.59,31.88-1.29Zm4.39,1C59,82.11,32.12,86.7,29.33,84c-.2-.1-.29-.29-.2-.39s.41-.31.7-.31C37.61,82.81,50,80.41,55,74.44a10.61,10.61,0,0,0,1.19-2.29c0-.31.2-.2.4.39ZM17.67,75.73c-.69,5,7.68,6.88,11.37,6.67,1.29-.09.89-.69-.1-.79-4.59-.6-8.38-2.09-10.57-5.38-.39-.7-.6-.9-.7-.5ZM12,41.06c-.1.69-1.29.89-2.38.1a3.32,3.32,0,0,1-1.3-2.1,4,4,0,0,1,.5-2.39c.89-1.7,3.59-2.29,3.59-2.29a4.89,4.89,0,0,1-1.3-.5c-.4-.39-.1-1.29.5-1.19.2,0,.29.29.9.19a2.15,2.15,0,0,0,.59-.39,1.4,1.4,0,0,0,.21-.6.71.71,0,0,0-.21-.4l-.3-.3a.57.57,0,0,0-.39-.1H12c-.49.2-.39.3-.69.4a2.7,2.7,0,0,1,.8-.7,1.85,1.85,0,0,1,1-.19,2.91,2.91,0,0,1,1.2.49,2.38,2.38,0,0,1,.59,1.09c.21,1.1-.1,1.31-1,1.9-.2.2,1,.7.7.89-1.9,2-2.19,4.39-2.6,6.09Zm40.86-4.89c-2.19-.1-3.49-2.79-3.19-4.58.5-3.19,3.1-1.1,4.59.59,1.89,2,1.19,4-1.4,4Zm-.79,8.08c-3.09-.1-3.29-4.39-2.6-5.09,1.1-1,5.39.5,5.29,2.69a1.86,1.86,0,0,1-.31,1,2.25,2.25,0,0,1-.59.79,2.64,2.64,0,0,1-.9.51,1.37,1.37,0,0,1-.89.1Zm.19,8a2.54,2.54,0,0,1-1.59-.89,2.84,2.84,0,0,1-.7-1.7A1.85,1.85,0,0,1,52.45,48a2.4,2.4,0,0,1,2.3,2.29,2.23,2.23,0,0,1-.8,1.4,3.36,3.36,0,0,1-1.7.49ZM66.41,42.15a4.82,4.82,0,0,0,.69-2.29,4.53,4.53,0,0,0-.69-2.79c-.9-1.1-1.4-1.59-1.2-2.29.5-2.19.5-5.78-2.69-7.38a.87.87,0,0,1-.2-1.29c2-3-2.2-7.87-2.89-9.17a29.59,29.59,0,0,0-5.09-7.57C51.66,6.88,41.1.7,37.8.2A14.64,14.64,0,0,0,35.71,0h-.19a7.83,7.83,0,0,0-2.6.4c-1,.4-.9,1.1-.1,1.3,1.7.39,3.49-.8,5-.31A14.67,14.67,0,0,1,44,4.88,16.14,16.14,0,0,0,46.47,7c7.08,5.09,5.39,5.19,8.08,14a2.43,2.43,0,0,1,.1.79c0,.3-.21.5-.31.8a1.69,1.69,0,0,1-.69.5,1.13,1.13,0,0,1-.8.1c-.3-.1-1,.2-.4.8s1.5.59,1.89.9c1.7,1.29.9,3.38-1.09,3.18-4.18-.29-3.79-4.08-5-6.28-.9-1.49-1.6-.49-1.29.3,1.09,3.59-.61,5.69-1.1,8.47-.6,3.39.2,4.29.4,6,.19,1.9-1.4,2.89.39,7.08,1,1.69-.1,5.07.31,7.17,2.48,8.77,16.54,9.46,16.83,3.49.1-1.7-.1-1.8,1.5-3.09a3.34,3.34,0,0,0,1.1-1.5,4,4,0,0,0,.39-1.79,6.17,6.17,0,0,0-.3-1.89c-.79-2-1-2.49-.09-3.79ZM37.51,30.89a20,20,0,0,0-2.3-1.6,6.1,6.1,0,0,0-2.09-.79,8.5,8.5,0,0,0-1.59.1,6.89,6.89,0,0,0-.8.3c-.1,0-.1.1-.2.2s-.1.09-.1.19a.22.22,0,0,0,.2.21c.1.1.2.1.2.3v.59a.6.6,0,0,0,.1.4c0,.1.1.2.2.3a1.61,1.61,0,0,0,.89.3h.51c.19-.1.29-.1.39-.3a.52.52,0,0,0,.2-.4c.1-.09.1-.3.1-.4s.1-.4.1-.59.1-.1.2-.1a3.5,3.5,0,0,1,1.39,1.29,2.63,2.63,0,0,0,1.2,1.1,2.51,2.51,0,0,0,1.69-.3c.41-.2.3-.3-.29-.8Zm-3-5.68a12.37,12.37,0,0,0-5.39-.7,4,4,0,0,0-2,.9,3.66,3.66,0,0,0-1.29,1.69c-1.2,3.29,1.59,4.09,1.59,4.09A8,8,0,0,1,30,28.6a4.84,4.84,0,0,1,1.8-.7,7.94,7.94,0,0,1,2.59-.1,4,4,0,0,1,2.59,1c.89.7,2,1.89,2.79,2.59s1.19.79,1.3.1a4.37,4.37,0,0,0-.21-2,4.22,4.22,0,0,0-1-1.7c-1.3-1.19-3.39-1.89-5.38-2.59ZM7.21,36.27a4.92,4.92,0,0,1-1.59.9,2,2,0,0,1-1.09,0,3,3,0,0,1-1-.5,2.18,2.18,0,0,1-.5-.8,1.43,1.43,0,0,1,.1-.9c.8-1.48,3-1,3.39-1.79A12.44,12.44,0,0,0,6.91,35a1.45,1.45,0,0,1,.3,1.3ZM5.62,44.34c-1.19.6-3.59.8-3.79-1.89s3.29-2.59,3.89-2.59h.39a23.63,23.63,0,0,0-.49,4.48ZM5.92,28a2.45,2.45,0,0,1,.6-.5,17.7,17.7,0,0,0-.1,2.3c-.1,0-.31,0-.4-.1s-.3-.1-.4-.31A1.29,1.29,0,0,1,5.92,28ZM36.51,66c-6.68,0-18.93,2.1-21.63-4.08-1.79-6.58,9.67-3.28,9.77-4.78.1-2-5.58-1.8-7.37-1.7s-1.89-2.09-1.89-2.09.89-1.29,5.78-1.19c1.29,0,4.58.6,6.67.6,1.8-.11,2.49-1-.2-.9-1.49,0-2.69-.9-4.68-1.89a5.77,5.77,0,0,0-2.3-.51,4.45,4.45,0,0,0-2.29.51,9.06,9.06,0,0,1-1.49-.51c-.2-.1-.3-.29-.5-.49a1.45,1.45,0,0,1-.2-.7,1.7,1.7,0,0,1,.1-.7l.3-.59c.6-1,1.09-.51,2-.8.5-.2.7-.8,1.1-1.2a8.35,8.35,0,0,0,2.09.6c2.59.3,3-2.79.3-3.29-2.89-.6-8.17.2-5.68-5.78C17,35,20.17,28.3,19.47,27c-1.1-1.8-8.87-4.39-10.47-.8-.09-4,3.5-12.95,5.49-15.35.5-.59.9-1.29.5-1.79-1.9-2.19-7.88,12.76-8.17,16.24,0,.3-.1.6-.1.9a9.59,9.59,0,0,0-2.5,1.59c-2.09,1.7-1.09,5.08-.49,5.48a9.19,9.19,0,0,0-2.3,1.79,4.77,4.77,0,0,0-.79,2.6,22.52,22.52,0,0,0,.49,2.39,21.61,21.61,0,0,1,.41,2.59,7,7,0,0,1-.21,1.09c-1,7,3.3,9.47,5.49,10.37C9.21,62.78,14.88,70.65,23.36,71c5.58.2,11.85-.5,14.25-3.79.7-1-.4-1.2-1.1-1.2ZM22.56,87.59c-3,3.48-5.48,6.28-7,8.27-.89,1.2-1.49,1.89-1.39,2.59a4.59,4.59,0,0,0,.59,1.6,3.59,3.59,0,0,0,1.2,1.19c2.59-4.39,5.38-8.47,8-12.85.29-.5.39-.5,0-.7h-.7c-.5-.2-.4-.1-.7.2v-.3Zm3.39,1c-2.69,4.58-6.38,10.26-8.67,14.45-1,1.79-1.5,2.69-1.3,3.48.4,1.4,2.59,2.49,4.19,3.19,2-7,4.48-14.25,6.37-20.92.11-.3.11-.3-.2-.4h-.1c-.19,0-.09.1-.29.2Zm16.74,29.59a17.92,17.92,0,0,1,0,2.2,33.37,33.37,0,0,0,5-2.2c1.5-.9,1.1-1.49.6-3-.3-1-.7-1.89-1-2.69l-1,.5a9.1,9.1,0,0,0-2.19,1c-.41.29-.31.5-.31.89,0,1.7-.29,2.7-1.09,3.29ZM34,121.77c2-.7,3.88-1.49,5.78-2.29.09,2.79-.2,3.69-1.2,4.38-2.79,1.6-8.47,4.29-9.27,4.29a5,5,0,0,1-1.69-.6c-.89-.5-2.09-1.2-3.29-2-4.68-3-4.88-2.19-2.79-6.77a23,23,0,0,0,2.69,1.7c1.1.59,2.29,1.29,3.19,1.69a5.89,5.89,0,0,0,2.59.69,6.39,6.39,0,0,0,2.79-.69l1.2-.4ZM49.26,111.4l1-.59c1.1-.7,1.7-1.1,1.8-1.7a5,5,0,0,0-.2-2.09,5.47,5.47,0,0,1-.5-1.79c0-.4.3-.6.7-.9s.39-.3.59-.5c1.69,3.19,2.1,4.39,1.79,5.28s-1.39,1.6-4.68,3.59c-.2-.5-.3-.8-.5-1.3Zm-34.77-.89a8.29,8.29,0,0,0,.7-1.2,1.75,1.75,0,0,1-.5-.39,2.24,2.24,0,0,1-.9-1,2,2,0,0,1-.2-1.3A9.25,9.25,0,0,1,15,103c-.11-.1-.3-.31-.4-.41-.8,1.6-1.39,2.79-2,4-.89,1.69-.19,1.79,1.1,3a6.47,6.47,0,0,0,.8.9Zm4.58,8.27c.2-.5.4-1.1.6-1.7V117a4.3,4.3,0,0,1-.6-1.59,6.31,6.31,0,0,1,.1-1.89c.1-.4.2-.8.3-1.3l-2.69-1.79c-.69,1.4-1.3,2.19-1.69,3.09-.7,1.39-.8,1.89,0,2.59a20.06,20.06,0,0,0,4,2.69Z"
              transform="translate(-0.64)" style="fill:#a71a37;fill-rule:evenodd"/>
    </symbol>

    <symbol id="icon-logo-footer" viewBox="0 0 162 139">
        <g clip-path="url(#clip0)">
            <path d="M60.45 34C58.75 32.1 55.95 29.8 55.35 33.3C54.95 35.3 56.55 38.2 58.85 38.4C61.75 38.5 62.55 36.2 60.45 34Z" fill="white"/>
            <path d="M60.95 53.9C61.05 52.6 59.95 51.6 58.45 51.4C56.95 51.2 55.75 51.9 55.75 53.2C55.85 54.6 56.85 55.8 58.35 56C59.55 56.2 60.75 55.2 60.95 53.9Z" fill="white"/>
            <path d="M20.65 84.4C20.25 90.2 28.25 94.1 34.95 94.2C35.95 94.3 35.85 93.2 35.15 93.2C26.95 92.8 22.85 88.3 21.35 85C21.05 84.3 20.85 84 20.65 84.4Z" fill="white"/>
            <path d="M18.05 118.8C17.15 118.3 16.75 117.3 16.75 116.3C16.65 115.4 17.65 113.4 18.45 111.5C18.25 111.4 18.15 111.2 18.05 111.1C17.25 112.8 16.25 115.1 15.65 116.3C14.75 118.1 15.45 118.2 16.85 119.5C17.15 119.8 17.45 120.1 17.85 120.3C18.15 119.8 18.25 119.5 18.55 119.1C18.45 119.1 18.25 118.9 18.05 118.8Z" fill="white"/>
            <path d="M59.75 79.4C60.05 78.7 59.65 78.8 59.05 79.2C51.15 84.4 30.55 90.6 23.75 81.4C22.65 80 21.85 81.2 21.95 82.3C26.05 95.7 56.25 86 59.75 79.4Z" fill="white"/>
            <path d="M22.95 125.7C22.85 125 22.85 124.3 23.05 123.6C23.15 123.1 23.25 122.7 23.35 122.3C22.35 121.7 21.35 121.1 20.45 120.4C19.75 122 19.15 122.8 18.75 123.7C18.15 125.2 18.05 125.7 18.95 126.4C20.25 127.5 21.65 128.4 23.15 129.1C23.35 128.5 23.55 128 23.75 127.4C23.75 127.4 23.75 127.4 23.65 127.3C23.35 126.8 23.05 126.3 22.95 125.7Z" fill="white"/>
            <path d="M6.74997 47.4C6.74997 45.7 6.94997 44.1 7.24997 42.4C7.14997 42.4 6.94997 42.5 6.84997 42.5C6.24997 42.5 2.44997 42.6 2.54997 45.4C2.64997 48.2 5.54997 48.2 6.74997 47.4Z" fill="white"/>
            <path d="M11.25 38.9C10.55 40.3 10.65 43.8 11.85 44.8C14.55 45.9 15.55 43.5 16.15 41C16.65 39.1 17.55 37.5 16.75 37C16.45 36.8 15.85 36.5 16.05 36.2C17.05 35.6 17.35 35.4 17.15 34.2C16.95 33.2 16.25 32.5 15.25 32.4C14.45 32.3 13.65 32.7 13.25 33.4C13.65 33.2 13.45 33.1 14.05 32.9C14.65 32.7 15.15 33.1 15.35 33.6C15.55 34.1 15.15 34.7 14.65 34.9C14.05 35 13.85 34.7 13.75 34.7C13.35 34.7 12.95 35.1 12.95 35.5C12.95 35.7 13.05 35.9 13.15 36C13.55 36.3 14.05 36.5 14.55 36.6C13.05 36.9 11.95 37.8 11.25 38.9Z" fill="white"/>
            <path d="M4.55002 38.9001C5.15002 39.4001 6.05002 39.6001 6.85002 39.4001C7.55002 39.2001 8.15002 38.9001 8.65002 38.4001C8.75002 37.9001 8.65002 37.3 8.35002 36.8C8.15002 36.2 7.95002 35.5 7.85002 34.8C7.45002 35.7 4.95002 35.2 4.15002 36.8C3.85002 37.6 3.95002 38.4001 4.55002 38.9001Z" fill="white"/>
            <path d="M8.04997 26.3C8.24997 23.8 11.05 16 13.65 11.5C13.95 10.9 13.85 11 13.55 11.4C10.85 15.5 7.34997 23.2 6.74997 26.4C6.44997 27.7 7.84997 27.7999 8.04997 26.3Z" fill="white"/>
            <path d="M7.65002 31.3C7.65002 30.5 7.65002 29.7 7.75002 28.8C7.55002 29 7.35002 29.2 7.15002 29.4C6.65002 30 6.55002 30.6 6.75002 31C6.95002 31.2 7.25002 31.3 7.65002 31.3Z" fill="white"/>
            <path d="M23.85 78.3C31.65 88.7001 61.15 76.8 58.95 70.7C58.65 69.6 58.25 68.7001 57.95 67.8C57.65 67 57.45 66.2001 57.35 65.4C56.75 60.8 57.35 61.2001 55.35 59.4001C54.55 58.7001 53.95 57.9001 53.35 57C50.65 52.6 53.55 49.5 51.95 46.6C49.95 42 51.75 40.9 51.55 38.8C51.35 36.9 50.55 36 51.15 32.2001C51.65 29.1 53.65 26.7 52.35 22.8C51.95 21.9 52.75 20.8 53.75 22.5C55.15 24.9 54.65 29.1 59.35 29.4C61.55 29.6 62.35 27.3 60.45 25.9C60.05 25.5 58.95 25.5 58.35 24.9C57.75 24.3 58.45 24 58.75 24.1C59.75 24.2001 60.65 23.5 60.75 22.4C60.75 22.1 60.75 21.8 60.65 21.5C57.75 11.8 59.55 11.8 51.75 6.20005C50.85 5.50005 49.95 4.80005 49.15 3.90005C47.25 2.10005 44.85 0.700049 42.35 4.90099e-05C41.25 -0.299951 39.85 0.200049 38.55 0.400049C38.15 0.500049 37.65 0.500049 37.25 0.500049C33.95 0.700049 30.75 1.50005 27.65 2.80005C23.65 4.60005 19.45 7.00005 16.65 10.4H16.55V10.5H16.45V10.6V10.7H16.35V10.8H16.25V10.9H16.15V11H16.05C13.75 14.4 10.35 23.3 10.55 27.4C12.35 23.4 20.85 26.3001 21.95 28.2001C22.75 29.6 19.25 37 18.55 38.6C15.85 45.3 21.65 44.3 24.85 45C27.85 45.5 27.45 48.9 24.55 48.6C23.75 48.5 22.95 48.3 22.15 48C21.75 48.4001 21.45 49.1 20.95 49.3C19.95 49.6 19.45 49.1001 18.65 50.2001C17.95 51 18.15 52.3001 18.95 52.9001C19.45 53.2001 19.95 53.3001 20.55 53.4001C22.15 52.7001 23.95 52.7001 25.55 53.5C27.75 54.6 29.05 55.6 30.75 55.6C33.85 55.4 33.05 56.5 30.95 56.5C28.65 56.6 25.15 56 23.75 55.9001C18.35 55.7001 17.35 57.2001 17.35 57.2001C17.35 57.2001 17.45 59.6 19.45 59.5C21.45 59.4001 27.65 59.2001 27.55 61.4001C27.45 63 14.85 59.4 16.75 66.7C18.65 71.1 24.95 71.7 31.15 71.6C32.05 71.5 32.95 71.5 33.85 71.5C36.35 71.3 38.65 71.2 40.55 71.2C41.35 71.2 42.55 71.5 41.85 72.5C39.15 76.1 32.25 76.9 26.15 76.7C25.05 76.7 23.95 76.5 22.85 76.3C22.35 76.1001 21.65 75.9 21.15 75.7C15.35 73.4 11.05 67.1001 8.75002 60.1C8.45002 59.2 8.35002 58.3 7.15002 57.8C3.45002 56.2001 1.25002 52.4001 1.75002 48.4001C1.95002 47.3001 2.15002 46.1001 2.15002 44.9001C2.05002 44.1001 1.85002 43.2 1.75002 42.6C1.55002 41.7 1.35002 40.8001 1.25002 39.9001C1.35002 39.2001 1.45002 38.5 1.75002 37.8C1.75002 37.6 1.65002 37.5 1.55002 37.7001C1.05002 38.6001 0.750024 39.5 0.650024 40.5C0.750024 41.4001 0.950024 42.3 1.15002 43.2001C1.45002 44.1001 1.55002 45.1 1.65002 46.1C1.55002 46.4 1.35002 47.4001 1.35002 47.4001C0.150024 54.3001 3.45002 58 6.25002 59.4001C6.85002 59.7001 7.05002 60.1 7.45002 61.1C9.35002 67 12.95 72.1 17.75 75C19.45 76.1 22.65 76.7001 23.85 78.3ZM33.55 29.9C32.45 30.7 31.45 31.7001 30.75 32.9001C30.75 32.9001 27.65 32.1 29.05 28.4C29.65 26.9 31.05 25.9 32.65 25.6C34.65 25.4 36.75 25.7 38.65 26.4C40.95 27 43.25 27.8001 44.55 29.2001C45.55 30.3001 45.95 31.8001 45.75 33.2001C45.65 34 45.15 33.9 44.35 33.1C43.55 32.3 42.35 31.1 41.25 30.3C40.45 29.6 39.35 29.2001 38.35 29.2001C37.45 29.1 36.45 29.1 35.55 29.3C34.75 29.3 34.15 29.6 33.55 29.9ZM42.25 33.5C41.65 33.9001 41.05 34 40.35 33.9001C39.75 33.7001 39.35 33.1001 39.05 32.7001C38.85 32.3 38.55 32 38.15 31.7001C37.95 31.5 37.75 31.4 37.55 31.3C37.35 31.3 37.35 31.3 37.25 31.4C37.15 31.5 37.45 33.3 35.85 33.2001C35.45 33.2001 35.15 33.1001 34.85 32.9001C34.65 32.7001 34.55 32.4 34.55 32.1V31.5C34.55 31.3 34.45 31.2001 34.35 31.2001C34.25 31.2001 34.05 31 34.05 30.9C34.05 30.7 34.25 30.6 34.35 30.5C34.55 30.3 34.75 30.3001 35.25 30.2001C35.85 30.1 36.45 30 37.05 30C37.85 30.1 38.65 30.4 39.45 30.9C40.35 31.4 41.35 32.2001 41.95 32.7001C42.55 33.1001 42.75 33.3 42.25 33.5Z" fill="white"/>
            <path d="M4.25002 34.7C3.75002 33.6 3.55002 32.4 3.85002 31.2C4.05002 30.4 3.95002 30.4 3.65002 31C3.15002 32.3 3.15002 33.7 3.65002 35C3.95002 35.8 4.65002 35.6 4.25002 34.7Z" fill="white"/>
            <path d="M39.15 132.3C38.75 132.5 38.35 132.7 37.95 132.8C37.05 133.2 36.05 133.5 35.05 133.5C34.05 133.5 33.05 133.2 32.25 132.7C31.25 132.3 30.05 131.6 28.75 130.9C27.65 130.3 26.75 129.7 25.85 129.1C23.85 133.9 24.05 133.1 29.15 136.2C30.45 137 31.75 137.8 32.75 138.2C33.35 138.5 33.95 138.8 34.55 138.8C35.35 138.8 41.15 136 44.05 134.3C45.05 133.6 45.25 132.6 45.05 129.7C43.15 130.8 41.15 131.6 39.15 132.3Z" fill="white"/>
            <path d="M55.15 41.8C54.35 42.6 54.55 47.3 58.05 47.4C59.55 47.5 60.85 46.3 60.95 44.8C61.05 42.4 56.35 40.7 55.15 41.8Z" fill="white"/>
            <path d="M63.05 78.4C62.75 79.3 62.25 80.1 61.75 80.9C56.55 87.2 41.65 91.1 31.45 90.5C31.15 90.4 30.85 90.5 30.75 90.8C30.75 90.9 30.85 91.1 31.05 91.2C36.55 94.7 66.15 88.9 63.65 78.8C63.35 78.3 63.15 78.1 63.05 78.4Z" fill="white"/>
            <path d="M74.75 36.7C75.25 34.2 75.25 30.3 71.85 28.6C71.45 28.3 71.35 27.6 71.65 27.2C73.85 23.9 69.15 18.4 68.45 17.1C66.45 13.3 64.75 10.6 62.85 8.79995C61.25 7.29995 56.95 4.79995 52.55 2.79995C50.35 1.69995 49.95 1.89995 52.25 3.19995C55.25 4.79995 58.05 6.69995 60.65 8.89995C62.55 10.7 64.25 13.3 66.25 17.2C67.05 18.5 71.75 24 69.45 27.3C69.25 27.5 69.05 28.4 69.75 28.8C73.15 30.5 73.15 34.4 72.75 36.9C72.55 37.7 73.15 38.2 74.05 39.5C74.55 40.4 74.85 41.5 74.85 42.5999C74.85 43.1999 74.75 43.9 74.45 44.5C74.05 45.4 73.65 45.1 73.45 45.9C73.45 47.1 73.55 48.3999 73.95 49.5999C74.15 50.1999 74.35 50.8999 74.25 51.5999C74.25 53 73.55 54.2999 72.55 55.2C71.35 56.4 71.45 56.6 70.95 58.4C70.65 59.4 70.05 60.1999 69.15 60.5999C66.95 61.6999 64.55 62.4 62.15 62.5C62.15 62.5 67.95 66.0999 70.75 61.0999C71.85 60.7999 72.75 59.9 73.05 58.9C73.25 58.1 73.45 57.3999 73.85 56.5999C74.45 55.5 75.25 54.9 75.75 54C76.15 53.2999 76.45 52.3999 76.55 51.5999C76.55 50.8999 76.45 50.1999 76.25 49.5999C75.65 47.5 75.65 46.5 75.95 45.9C76.25 45 77.05 44.6999 77.05 42.5999C77.15 41.5 76.85 40.4 76.35 39.5C75.15 38 74.55 37.5 74.75 36.7Z" fill="white"/>
            <path d="M63.15 86.3C59.85 90 49.75 93.7 44.85 94.7C36.55 96.5 27.45 95.7 20.65 89.4C20.35 89.2 19.65 88.8 19.75 89.7C19.85 92.2 21.55 93.8 23.45 95.1C24.15 95.6 24.85 96 25.65 96.4C25.55 96.5 25.45 96.6 25.35 96.8C22.45 100.4 20.25 102.4 18.85 104.6C17.95 105.9 17.45 106.6 17.55 107.3C17.85 108.5 18.55 109.5 19.65 110.2C22.25 105.6 24.45 102.2 26.95 97.6C27.05 97.4 27.15 97.3 27.15 97.2C27.75 97.5 28.35 97.7 28.95 97.9C26.35 102.8 22.75 108.1 20.65 112.6C19.65 114.5 19.25 115.5 19.45 116.4C19.85 117.8 22.25 119 24.05 119.7C25.75 112.3 28.05 105.3 29.75 98.2L31.85 98.7H31.75C30.15 105.8 27.95 111.5 26.35 118.9C24.75 126.3 25.35 126.3 33.05 129.8C33.65 130.1 34.25 130.3 34.95 130.3C35.65 130.3 36.45 130.1 37.05 129.8C49.45 124.8 46.35 125.1 43.25 111.5C42.25 107.5 41.35 103.4 40.45 99.2V99.1C41.25 99 41.95 98.9 42.65 98.8C42.55 98.9 42.55 99.1 42.75 99.5C44.75 106.6 47.05 113.1 48.35 120.4C48.35 120.7 48.45 120.9 48.45 121C50.55 120.2 52.55 119.4 53.75 118.8C55.45 118 54.85 117.3 54.15 115.5C53.55 113.9 52.55 112.5 51.45 110.1C50.25 107.5 49.05 105.1 48.25 103.2C47.15 101.1 46.65 99.8 46.15 98.8C46.05 98.5 45.75 98.3 45.35 98.2C46.45 98 47.45 97.7 48.55 97.4C48.15 97.6 47.95 98.1 48.15 98.5C50.45 103 52.85 106.9 55.05 111.6C56.35 110.4 57.85 108.9 57.95 108.2C57.95 106.6 54.45 100.5 51.85 97C51.65 96.7 51.55 96.5 51.35 96.5C52.25 96.2 53.15 95.8 54.05 95.3C58.15 93.3 62.25 90.5 63.75 86.9C63.75 86.5 63.35 86 63.15 86.3ZM34.85 100.9C34.75 102 34.55 103.1 34.25 104.2C33.95 104.8 33.55 104.8 33.25 104.1C33.15 103 33.05 101.9 33.15 100.8C33.25 100.1 33.25 99.4 33.35 98.9V98.8L35.15 99C35.05 99.6 34.95 100.2 34.85 100.9ZM39.25 108.5C39.15 110.1 38.75 110.1 38.15 108.5C37.55 106.3 37.15 104.1 36.85 101.8C36.65 100.6 36.55 99.7 36.35 99H38.25V99.1C38.35 99.7 38.45 100.5 38.55 101.6C38.95 103.9 39.25 106.2 39.25 108.5Z" fill="white"/>
            <path d="M52.75 122.5C52.35 122.7 52.05 122.9 51.75 123C50.95 123.3 50.15 123.6 49.45 124C49.05 124.2 49.15 124.5 49.15 124.9C49.25 126.7 48.95 127.7 48.15 128.4C48.25 129.2 48.25 129.9 48.25 130.8C50.05 130.2 51.75 129.4 53.45 128.5C54.95 127.6 54.55 127 53.95 125.3C53.55 124.4 53.15 123.4 52.75 122.5Z" fill="white"/>
            <path d="M57.35 113.9C56.95 114.2 56.65 114.4 56.65 114.9C56.75 115.6 57.05 116.2 57.25 116.8C57.55 117.5 57.75 118.3 57.65 119.1C57.45 119.7 56.85 120.2 55.75 120.9C55.45 121.1 55.15 121.3 54.65 121.5C54.95 122 55.05 122.4 55.25 122.8C58.55 120.8 59.75 120.1 60.05 119C60.35 117.9 59.85 116.8 57.85 113.4L57.35 113.9Z" fill="white"/>
            <path d="M102.65 105.4L103.35 106.1L105.15 104.3V115.1H107.45V103H105.05L102.65 105.4Z" fill="white"/>
            <path d="M115.15 106.5C115.75 106.2 116.35 105.7 116.95 105.2C117.45 104.6 117.75 103.9 117.75 103.2C117.75 102.4 117.35 101.6 116.75 101.1C116.05 100.4 115.05 100 113.95 100C112.85 100 111.85 100.4 111.05 101.2C110.35 101.8 110.05 102.7 110.05 103.6C110.05 104.8 110.85 105.9 112.45 107C111.35 107.6 110.35 108.5 109.75 109.6C109.25 110.5 109.15 111.4 109.35 112.4C109.55 113.3 110.15 114 110.95 114.5C111.75 115.1 112.75 115.5 113.85 115.4C115.15 115.5 116.45 115 117.35 114.2C118.25 113.3 118.65 112.1 118.65 110.8C118.65 109.8 118.25 108.9 117.55 108.2C116.75 107.6 116.05 107 115.15 106.5ZM111.95 103.1C111.95 102.6 112.15 102.1 112.45 101.8C112.85 101.4 113.35 101.1 113.95 101.2C114.55 101.2 115.15 101.4 115.45 101.9C115.75 102.3 115.95 102.8 115.95 103.3C115.85 104.5 115.15 105.5 114.15 106C112.75 105 111.95 104 111.95 103.1ZM115.65 113.3C115.25 113.9 114.45 114.3 113.75 114.3C113.15 114.3 112.45 114 112.05 113.5C111.55 113 111.25 112.4 111.15 111.7C110.95 111 111.05 110.2 111.45 109.5C111.85 108.7 112.45 108 113.15 107.5L113.75 107.9L114.35 108.3L115.35 109.2C115.95 109.8 116.35 110.6 116.35 111.4C116.35 112.2 116.15 112.8 115.65 113.3Z" fill="white"/>
            <path d="M127.25 103H125.45L118.75 115H125.05V117.6H127.35V115H129.55V114H127.35V103H127.25ZM124.95 114H120.55L124.95 105.8V114Z" fill="white"/>
            <path d="M136.55 106.4C135.85 106.1 135.05 106 134.25 106.1C133.55 106.2 132.85 106.5 132.25 107C132.65 105.8 133.25 104.7 133.95 103.6C134.25 103.2 134.65 102.6 135.05 102L135.55 101.2L136.05 100.4H134.65C134.35 100.7 134.05 101.1 133.75 101.4L133.35 101.9L132.95 102.5C132.35 103.2 131.75 104 131.25 104.8C130.15 106.6 129.45 108.7 129.45 110.9C129.45 112.1 129.95 113.3 130.75 114.1C131.65 114.9 132.95 115.4 134.15 115.3C135.55 115.3 136.85 114.8 137.85 113.9C138.65 113 139.15 111.8 139.15 110.6C139.15 109.6 138.85 108.7 138.35 107.9C137.95 107.3 137.35 106.7 136.55 106.4ZM136.35 113.2C135.85 113.9 135.15 114.3 134.25 114.3C133.55 114.3 132.85 114 132.35 113.5C131.75 112.8 131.55 111.9 131.55 111C131.45 110 131.75 108.9 132.25 108.1C132.65 107.4 133.45 107 134.25 107C135.05 107 135.85 107.5 136.25 108.2C136.75 108.9 136.95 109.8 136.85 110.7C136.95 111.5 136.75 112.4 136.35 113.2Z" fill="white"/>
            <path d="M101.05 74V70.4H104.85C107.75 70.6 110.15 68.4 110.35 65.5C110.45 63.3 109.25 61.2 107.15 60.4C106.45 60 105.65 59.8 104.75 59.9H97.95V74H101.05ZM101.05 62.7H104.75C106.05 62.7 107.15 63.7 107.15 65V65.1C107.15 66.4 106.15 67.5 104.95 67.5H101.05V62.7Z" fill="white"/>
            <path d="M125.05 74L124.85 73.6L118.85 60.1V59.9H115.85V60.1L109.85 73.6L109.65 74H112.75L112.85 73.9L113.85 71.6H120.65L121.75 73.9L121.85 74H125.05ZM115.05 68.8L117.35 63.2L119.65 68.8H115.05Z" fill="white"/>
            <path d="M151.75 74C152.55 74 153.35 73.8 154.05 73.5C156.65 72.3 157.85 69.3 156.65 66.6C155.75 64.7 153.85 63.5 151.75 63.6H147.85V59.9H144.85V74H151.75ZM147.85 66.4H151.75C153.05 66.4 154.05 67.5 154.05 68.7C154.05 70 153.05 71.2 151.75 71.2H151.65H147.95V66.4H147.85Z" fill="white"/>
            <path d="M160.95 59.9H158.55H158.25V60.2V73.8V74H158.55H160.95H161.25V73.8V60.2V59.9H160.95Z" fill="white"/>
            <path d="M141.85 73.8V60.2V59.9H141.55H138.95H138.85L138.75 60.1L134.35 66.4L129.85 60.1L129.75 59.9H129.55H126.95H126.65V60.2V73.8V74H126.95H129.25H129.55V73.8V64.7L133.55 70.3L133.65 70.4H133.75H134.65H134.85L134.95 70.3L138.95 64.7V73.8V74H139.25H141.55H141.85V73.8Z" fill="white"/>
            <path d="M83.55 74H93.05V74.1L93.15 75.8H95.95V71.3H94.15V59.9H83.95L82.45 71.2H80.65V75.7H83.45L83.55 74ZM86.55 62.6H91.05V71.2H85.35L86.55 62.6Z" fill="white"/>
            <path d="M105.45 95.2L103.05 89.8H102.05L99.65 95.2H100.65L102.45 90.7H102.55L104.45 95.2H105.45Z" fill="white"/>
            <path d="M117.55 95.2V89.8H116.45L114.65 92.4L112.75 89.8H111.65V95.2H112.65V91.2L114.45 93.7H114.75L116.55 91.2V95.2H117.55Z" fill="white"/>
            <path d="M139.25 90.5001C139.85 90.5001 140.45 90.7001 140.95 91.1001L141.55 90.5001C140.95 89.9001 140.15 89.6001 139.25 89.6001C138.55 89.6001 137.75 89.9001 137.25 90.4001C136.15 91.5001 136.15 93.3001 137.25 94.4001C137.85 94.9001 138.55 95.2001 139.25 95.2001C140.05 95.3001 140.95 94.9001 141.55 94.3001L140.95 93.7001C140.45 94.1001 139.85 94.3001 139.25 94.3001C138.75 94.3001 138.25 94.1001 137.95 93.7001C137.55 93.4001 137.35 92.9001 137.45 92.4001C137.45 91.9001 137.65 91.4001 137.95 91.1001C138.25 90.8001 138.75 90.5001 139.25 90.5001Z" fill="white"/>
            <path d="M121.05 95.3C122.55 95.4 123.95 94.2 123.95 92.6C123.95 91.8 123.65 91 123.05 90.4C122.55 89.8 121.75 89.5 120.95 89.6C120.15 89.6 119.45 89.9 118.95 90.5C118.45 91 118.25 91.7 118.15 92.4C118.15 93.1 118.35 93.8 118.85 94.3C119.55 94.9 120.25 95.2 121.05 95.3ZM119.75 91.1C120.05 90.7 120.55 90.5 121.05 90.5C122.15 90.5 122.95 91.3 122.95 92.4C122.95 92.9 122.75 93.4 122.45 93.7C122.15 94.1 121.55 94.3 121.05 94.3C120.05 94.3 119.15 93.4 119.15 92.4C119.15 92 119.35 91.5 119.75 91.1Z" fill="white"/>
            <path d="M152.15 92.2C152.25 92.1 152.45 92 152.55 91.8C152.65 91.6 152.75 91.4 152.75 91.2C152.75 90.8 152.65 90.5 152.35 90.2C152.05 89.9 151.55 89.8 151.15 89.8H148.35V95.2H151.25C151.75 95.2 152.25 95 152.55 94.7C152.85 94.4 153.05 94 153.05 93.6C153.05 93.3 152.95 93 152.75 92.7C152.55 92.4 152.35 92.2 152.15 92.2ZM149.25 90.6H150.95C151.15 90.6 151.35 90.7 151.55 90.8C151.65 90.9 151.75 91.1 151.75 91.2C151.75 91.4 151.65 91.5 151.55 91.7C151.45 91.8 151.25 91.8 151.15 91.9H149.25V90.6ZM151.85 94C151.65 94.2 151.45 94.3 151.15 94.3H149.25V92.6H151.25C151.45 92.6 151.75 92.7 151.85 92.9C151.95 93.1 152.05 93.2 152.05 93.4C152.05 93.7 151.95 93.9 151.85 94Z" fill="white"/>
            <path d="M130.95 94.3001C131.45 94.9001 132.25 95.3001 133.05 95.3001C133.85 95.3001 134.55 95.0001 135.15 94.4001C136.15 93.3001 136.15 91.5001 135.15 90.4001C134.65 89.9001 133.85 89.6001 133.15 89.6001C132.35 89.6001 131.55 89.9001 131.05 90.5001C130.55 91.0001 130.35 91.7001 130.25 92.4001C130.15 93.1001 130.45 93.8001 130.95 94.3001ZM131.65 91.1001C131.95 90.7001 132.55 90.5001 133.05 90.5001C133.55 90.5001 134.05 90.7001 134.35 91.1001C134.75 91.4001 134.95 91.9001 134.85 92.4001C134.85 92.9001 134.65 93.4001 134.35 93.7001C134.05 94.1001 133.55 94.3001 133.05 94.3001C132.55 94.3001 132.05 94.1001 131.65 93.7001C130.95 93.0001 130.95 91.9001 131.65 91.1001Z" fill="white"/>
            <path d="M155.55 89.8L153.15 95.2H154.25L154.65 94.2H157.65L158.05 95.2H159.05L156.65 89.8H155.55ZM154.95 93.3L155.95 90.7L157.05 93.3H154.95Z" fill="white"/>
            <path d="M95.35 92.2C95.45 92.1 95.65 92 95.75 91.8C95.85 91.6 95.85 91.4 95.95 91.2C95.95 90.8 95.85 90.5 95.55 90.2C95.15 89.9 94.75 89.8 94.35 89.8H91.55V95.2H94.45C94.95 95.2 95.45 95 95.75 94.7C96.05 94.4 96.25 94 96.25 93.6C96.25 93.3 96.15 93 95.95 92.7C95.85 92.4 95.65 92.2 95.35 92.2ZM92.55 90.6H94.25C94.45 90.6 94.65 90.7 94.75 90.8C94.85 90.9 94.95 91.1 94.95 91.2C94.95 91.4 94.85 91.5 94.75 91.7C94.65 91.8 94.45 91.8 94.35 91.9H92.45V90.6H92.55ZM95.05 94C94.85 94.2 94.65 94.3 94.45 94.3H92.55V92.6H94.55C94.75 92.6 95.05 92.7 95.15 92.9C95.35 93 95.35 93.2 95.35 93.4C95.35 93.7 95.25 93.9 95.05 94Z" fill="white"/>
            <path d="M129.45 95.2V89.8H128.45V91.8H125.65V89.8H124.65V95.2H125.65V92.6H128.45V95.2H129.45Z" fill="white"/>
            <path d="M110.95 92.4001C110.95 91.7001 110.65 90.9001 110.15 90.4001C109.65 89.9001 108.85 89.6001 108.15 89.6001C107.35 89.6001 106.55 89.9001 106.05 90.5001C105.65 91.0001 105.35 91.7001 105.35 92.4001C105.35 93.1001 105.55 93.8001 106.05 94.3001C107.05 95.5001 108.95 95.6001 110.05 94.5001L110.15 94.4001C110.65 93.8001 110.95 93.1001 110.95 92.4001ZM109.45 93.7001C109.15 94.1001 108.65 94.3001 108.15 94.3001C107.65 94.3001 107.15 94.1001 106.75 93.7001C106.45 93.3001 106.25 92.9001 106.25 92.4001C106.25 91.9001 106.35 91.5001 106.75 91.1001C107.05 90.7001 107.65 90.5001 108.15 90.5001C108.65 90.5001 109.15 90.7001 109.45 91.1001C109.85 91.5001 109.95 91.9001 109.95 92.4001C110.05 92.9001 109.85 93.4001 109.45 93.7001Z" fill="white"/>
            <path d="M144.65 89.7001C143.85 89.7001 143.15 90.0001 142.55 90.6001C142.05 91.1001 141.85 91.8001 141.75 92.5001C141.75 93.2001 141.95 93.9001 142.55 94.4001C143.05 95.0001 143.85 95.4001 144.65 95.4001C145.45 95.4001 146.15 95.1001 146.75 94.5001C147.85 93.4001 147.85 91.7001 146.85 90.6001L146.75 90.5001C146.15 89.9001 145.45 89.6001 144.65 89.7001ZM146.05 93.8001C145.75 94.2001 145.15 94.4001 144.65 94.4001C144.15 94.4001 143.65 94.2001 143.25 93.8001C142.95 93.4001 142.75 93.0001 142.75 92.5001C142.75 92.0001 142.95 91.6001 143.25 91.2001C143.55 90.8001 144.15 90.6001 144.65 90.6001C145.15 90.6001 145.65 90.8001 146.05 91.2001C146.45 91.6001 146.55 92.0001 146.55 92.5001C146.65 92.9001 146.45 93.4001 146.05 93.8001Z" fill="white"/>
            <path d="M90.05 94C89.65 94 89.45 94.2 89.45 94.6C89.45 94.9 89.75 95.2 90.05 95.2C90.35 95.2 90.65 94.9 90.75 94.6C90.75 94.2 90.45 94 90.05 94Z" fill="white"/>
            <path d="M85.85 92.4L83.85 89.8H82.85V95.2H83.75V91.2H83.85L85.65 93.7H85.95L87.75 91.2V95.2H88.75V89.8H87.65L85.85 92.4Z" fill="white"/>
            <path d="M97.55 94C97.15 94 96.85 94.2 96.85 94.6C96.85 95 97.15 95.2 97.55 95.2C97.85 95.2 98.15 94.9 98.15 94.6C98.15 94.3 97.95 94 97.65 94C97.55 94 97.55 94 97.55 94Z" fill="white"/>
            <path d="M118.45 79.8H117.45L115.55 82.4L113.65 79.8H112.65V85.2H113.55V81.2L115.35 83.8H115.65L117.45 81.2H117.55V85.2H118.45V79.8Z" fill="white"/>
            <path d="M128.35 81.8H125.45V79.8H124.45V85.2H125.45V82.8H128.35V85.2H129.25V79.8H128.35V81.8Z" fill="white"/>
            <path d="M130.15 79.8V85.2H131.05L134.15 81.2V85.2H135.05V79.8H134.25L131.15 83.8V79.8H130.15Z" fill="white"/>
            <path d="M111.65 85.2V79.8H110.75L107.75 83.8V79.8H106.75V85.2H107.65L110.75 81.2V85.2H111.65Z" fill="white"/>
            <path d="M123.55 80.7V79.8H119.35V85.2H123.65V84.3H120.35V82.8H123.25V81.9H120.35V80.7H123.55Z" fill="white"/>
            <path d="M137.95 34.2C138.75 34.2 139.55 33.8999 140.15 33.2999L139.55 32.7C139.15 33.1 138.55 33.2999 137.95 33.2999C137.45 33.2999 136.95 33.0999 136.65 32.7999C136.25 32.3999 136.05 31.9 136.05 31.4C136.05 30.9 136.25 30.4 136.65 30.1C136.95 29.7 137.45 29.5 137.95 29.6C138.55 29.6 139.15 29.8 139.55 30.2L140.15 29.6C139.55 29 138.75 28.7 137.95 28.7C137.15 28.7 136.45 29 135.95 29.6C135.45 30.1 135.05 30.8 135.05 31.5C135.15 32.9 136.45 34.1 137.95 34.2Z" fill="white"/>
            <path d="M109.05 31.6H111.95V34H112.85V28.6H111.95V30.7H109.05V28.6H108.05V34H109.05V31.6Z" fill="white"/>
            <path d="M134.05 33.5C134.45 33.1 134.65 32.5999 134.65 32.0999C134.65 31.5999 134.45 31.0999 134.15 30.7999C133.75 30.3999 133.15 30.2 132.55 30.2H130.95V28.7H129.95V34H132.55C133.05 34 133.65 33.8 134.05 33.5ZM130.95 31H132.45C132.75 31 133.05 31.0999 133.35 31.2999C133.55 31.4999 133.65 31.7999 133.65 32.0999C133.65 32.3999 133.55 32.7 133.25 33C133.05 33.2 132.85 33.2999 132.55 33.2999H130.85L130.95 31Z" fill="white"/>
            <path d="M86.05 33.1H88.95L89.35 34H90.45L88.05 28.6H86.95L84.65 34H85.65L86.05 33.1ZM87.35 29.6H87.45L88.55 32.2H86.35L87.35 29.6Z" fill="white"/>
            <path d="M114.75 29.5H117.95V28.6H113.75V34H114.75V29.5Z" fill="white"/>
            <path d="M141.85 31.6H143.05L144.55 34H145.75L143.95 31.2L145.55 28.6H144.45L143.05 30.7H141.85V28.6H140.95V34H141.85V31.6Z" fill="white"/>
            <path d="M150.35 30.1V34H151.25V28.6H150.45L147.25 32.6V28.6H146.45V34H147.25L150.35 30.1Z" fill="white"/>
            <path d="M156.05 27.1H153.35V27.8H156.05V27.1Z" fill="white"/>
            <path d="M156.15 30.1V34H157.15V28.6H156.15L153.15 32.6V28.6H152.15V34H153.05L156.15 30.1Z" fill="white"/>
            <path d="M96.85 34L98.45 31.9L99.95 34H101.15L99.05 31.2L100.95 28.6H99.85L98.45 30.6L97.05 28.6H95.85L97.75 31.2L95.85 34H96.85Z" fill="white"/>
            <path d="M103.05 33.1H105.95L106.35 34H107.45L105.05 28.6H104.05L101.65 34H102.65L103.05 33.1ZM104.45 29.6L105.65 32.2H103.45L104.45 29.6Z" fill="white"/>
            <path d="M126.35 29.6H126.45L128.25 34H129.35L126.95 28.6H125.85L123.55 34H124.55L126.35 29.6Z" fill="white"/>
            <path d="M92.05 32.5999H93.75C94.85 32.5999 95.75 31.7999 95.75 30.7999V30.7C95.75 29.6 94.85 28.7 93.75 28.7H91.15V34H92.15L92.05 32.5999ZM92.05 29.6H93.65C93.95 29.6 94.25 29.7 94.55 29.9C94.75 30.1 94.85 30.4 94.85 30.7C94.85 31.3 94.35 31.7999 93.75 31.7999H92.05V29.6Z" fill="white"/>
            <path d="M122.85 33.2H119.55V31.7H122.35V30.8H119.55V29.6H122.75V28.6H118.55V34H122.85V33.2Z" fill="white"/>
            <path d="M120.55 39.4V39.6L114.55 53.1L114.35 53.5H117.65V53.3L118.65 51H125.55L126.55 53.3L126.75 53.5H129.85L129.65 53.1L123.65 39.6V39.4H120.55ZM124.35 48.2H119.85L122.15 42.6L124.35 48.2Z" fill="white"/>
            <path d="M101.15 39.6V53.2V53.4H101.45H112.25H112.45V53.2V50.9V50.7H112.25H104.15V47.5H110.95H111.35V47.2V45V44.7H110.95H104.15V42.1H111.95H112.25V41.9V39.6V39.4H111.95H101.45H101.15V39.6Z" fill="white"/>
            <path d="M147.15 53.4001V49.8H150.95C153.85 49.9 156.25 47.6 156.35 44.7001V44.6C156.35 42.6 155.15 40.7 153.35 39.8C152.65 39.5 151.85 39.3 150.95 39.3H144.15V53.4001H147.15ZM147.15 42.1H150.85C152.15 42.1 153.25 43.1001 153.25 44.4001C153.25 44.5001 153.25 44.5 153.25 44.6C153.35 45.9 152.35 46.9 151.05 47C151.05 47 151.05 47 150.95 47H147.05V42.1H147.15Z" fill="white"/>
            <path d="M90.55 53.4H90.85H93.15H93.55V53.2V42.1H98.25H98.45V41.8V39.6V39.4H98.25H85.85H85.55V39.6V41.8V42.1H85.85H90.55V53.2V53.4Z" fill="white"/>
            <path d="M133.65 53.4H134.05H136.35H136.65V53.2V42.1H141.35H141.65V41.8V39.6V39.4H141.35H129.05H128.65V39.6V41.8V42.1H129.05H133.65V53.2V53.4Z" fill="white"/>
        </g>
        <defs>
            <clipPath id="clip0">
                <rect width="160.5" height="139" fill="white" transform="translate(0.75)"/>
            </clipPath>
        </defs>
    </symbol>

    <symbol id="icon-instagram" viewBox="0 0 17.5 17.5" fill="none" stroke="white" stroke-width="0.8">
        <circle class="st0" cx="8.8" cy="8.8" r="4.2"/>
        <circle class="st1" cx="13.4" cy="4" r="1.1"/>
        <path class="st0" d="M13,17.1H4.5c-2.2,0-4-1.8-4-4V4.5c0-2.2,1.8-4,4-4H13c2.2,0,4,1.8,4,4V13C17.1,15.2,15.3,17.1,13,17.1z"/>
    </symbol>

    <symbol id="icon-facebook" viewBox="0 0 17 34" fill="none" stroke="white">
        <path d="M11.0265 17.9875H10.5265V18.4875V33.5H5.53249V18.4875V17.9875H5.03249H0.5V12.9525H5.03249H5.53249V12.4525V7.99C5.53249 5.50571 6.25907 3.64481 7.4623 2.40712C8.66464 1.17034 10.397 0.5 12.5199 0.5C14.2144 0.5 15.7118 0.609184 16.5 0.683966V5.1525H13.911C12.632 5.1525 11.7304 5.46809 11.1757 6.14971C10.6405 6.80733 10.5265 7.69404 10.5265 8.585V12.4525V12.9525H11.0265H16.2288L15.5973 17.9875H11.0265Z"/>

    </symbol>

    <symbol id="icon-vk" viewBox="0 0 29.7 17.7" fill="none" stroke="white">
        <path stroke-width="1"  d="M24.3,10.1c-0.5-0.6-0.3-0.8,0-1.4c0,0,3.8-5.3,4.2-7.1l0,0c0.2-0.7,0-1.1-0.9-1.1h-3.1c-0.8,0-1.2,0.4-1.4,0.9
	c0,0-1.6,3.8-3.9,6.3c-0.7,0.7-1.1,0.9-1.5,0.9c-0.2,0-0.5-0.2-0.5-0.9V1.6c0-0.8-0.2-1.1-0.9-1.1h-4.9c-0.5,0-0.8,0.4-0.8,0.7
	c0,0.7,1.1,0.9,1.2,3v4.5c0,1-0.2,1.2-0.6,1.2c-1.1,0-3.7-3.8-5.2-8.2C5.8,0.8,5.5,0.5,4.7,0.5H1.6c-0.9,0-1.1,0.4-1.1,0.9
	c0,0.8,1.1,4.9,5,10.2c2.6,3.7,6.2,5.6,9.6,5.6c2,0,2.2-0.4,2.2-1.2c0-3.5-0.2-3.8,0.8-3.8c0.5,0,1.3,0.2,3.1,2c2.1,2.1,2.5,3,3.7,3
	H28c0.9,0,1.3-0.4,1.1-1.3C28.5,14.1,24.5,10.3,24.3,10.1z"/>
    </symbol>


    <symbol id="icon-dropdown-up" viewBox="0 0 11 6" fill="none">
        <path d="M1 5.25L5.5 0.75L10 5.25" stroke="#4F5164"/>
    </symbol>

    <symbol id="icon-dropdown-bottom" viewBox="0 0 11 6" fill="none">
        <path d="M1 0.75L5.5 5.25L10 0.75" stroke="#4F5164"/>    </symbol>
</svg>