<?xml version="1.0" encoding="utf-8"?>
<!-- Generator: Adobe Illustrator 22.0.1, SVG Export Plug-In . SVG Version: 6.00 Build 0)  -->
<svg version="1.1" id="Слой_1" xmlns="http://www.w3.org/2000/svg" xmlns:xlink="http://www.w3.org/1999/xlink" x="0px" y="0px"
	 viewBox="0 0 151.5 131.8" style="enable-background:new 0 0 151.5 131.8;" xml:space="preserve">
<style type="text/css">
	.st0{fill-rule:evenodd;clip-rule:evenodd;fill:#A71A37;}
	.st1{fill:#A71A37;}
</style>
<g>
	<g>
		<path class="st0" d="M48.1,88.1c2.7,3.6,6.9,9.3,6.9,11.4c0,0.4-0.1,0.9-0.3,1.3c-0.2,0.4-0.5,0.7-0.8,1l-0.4,0.3
			c0.6,1.1,1.2,2.1,1.7,3.1c0.6,1.2,1.1,2.3,1.4,3.1c0.2,0.4,0.3,0.8,0.3,1.2c0,0.4,0,0.8-0.2,1.2c-0.4,0.8-4.5,3.6-6.3,4.9
			c0.3,0.7,0.5,1.3,0.7,1.8c0.2,0.4,0.3,0.8,0.3,1.2c0,0.4-0.1,0.8-0.3,1.2c-0.5,0.8-6.2,3.2-8.8,4.3c0.3,2.1-0.3,2.4-2,3.2
			c-2.7,1.3-7.2,3.3-8.5,3.9c-0.9,0.4-1.8,0.6-2.8,0.7c-0.9-0.1-1.9-0.4-2.7-0.9c-1-0.5-2.2-1.3-3.5-2c-1.2-0.7-2.4-1.6-3.3-2.3
			c-0.7-0.5-1.4-1.1-1.8-1.9c-0.3-0.7-0.3-1.5-0.1-2.2c0.1-0.4,0.1-0.5,0.3-1c-1.4-0.8-6.6-3.4-6.7-5.1c0.2-1.2,0.7-2.4,1.4-3.4
			c-0.5-0.4-0.9-0.9-1.3-1.3c-0.6-0.6-1.1-1.2-1.6-1.8c-0.2-0.3-0.4-0.6-0.5-0.9c-0.1-0.3-0.1-0.7-0.1-1c0.1-1.1,2.6-4.5,3.8-6.3
			c-0.4-0.4-0.7-0.9-1.1-1.4c-0.4-0.5-0.5-1-0.5-1.6c0-0.6,0.3-1.1,0.7-1.5c2.6-3.6,5.5-6.7,8.4-10c0.5-0.6,0.5-0.6-0.1-1h-0.1h-0.1
			l-0.1-0.1L20,86.2h-0.1h0h0h0h-0.1l-0.1-0.1l-0.1-0.1l-0.1-0.1l-0.1,0h0l-0.1-0.1l-0.1-0.1l-0.1-0.1h0h0l-0.6-0.9l-0.1-0.1
			l-0.1-0.1l-0.1-0.1v-0.1L18,84.3v-0.1v0v-0.1c0,0,0-0.1-0.1-0.1v-0.1v-0.1v0v-0.1c0,0,0-0.1,0-0.1v-0.1v-0.1v-0.1v-0.1v-0.1v-0.1
			V83v-0.1v-0.2v-0.1v-0.7c0,0,0-0.1,0-0.1v-0.2v-0.1v-0.4c0-0.9,0.6-0.5,0.9-0.2c6.2,5.9,14.8,6.6,22.8,5c4.6-1,12.9-3.8,16.2-7.4
			c0.3-0.3,0.6,0.1,0.4,0.5l-0.1,0.2c0,0.1-0.1,0.1-0.1,0.2c0,0.1-0.1,0.1-0.1,0.2v0L57.8,80c0,0.1-0.1,0.1-0.1,0.2
			c0,0.1-0.1,0.1-0.1,0.2l-0.1,0.2l-0.1,0.2l-0.1,0.2l-0.1,0.2l-0.1,0.2v0.1l-0.1,0.1c0,0.1-0.1,0.1-0.1,0.2l-0.1,0.2l-0.1,0.1
			L56.3,82l-0.1,0.1l-0.1,0.1L56,82.3l-0.1,0.1l-1.5,0.5l-0.2,0.1l-0.1,0.1l-0.1,0.1l-0.2,0.1l-0.1,0.1l-0.1,0.1l-0.1,0.1l-0.1,0.1
			l-0.1,0.1L53.3,84c-0.1,0.1-0.1,0.1-0.2,0.1L53,84.2l-0.1,0.1l-0.1,0.1c-0.1,0-0.1,0.1-0.2,0.1h-0.1l-0.1,0.1l-0.1,0.1
			c-0.1,0-0.1,0.1-0.2,0.1h-0.1l-0.1,0.1l-0.1,0.1l-0.2,0.1l-0.1,0.1l-0.1,0.1c-0.1,0-0.2,0.1-0.3,0.2l-0.1,0L51,85.6
			c-0.1,0.1-0.2,0.1-0.3,0.2h-0.1l-0.1,0.1L50.2,86h-0.1L50,86.1h-0.1c-0.3,0.1-0.6,0.3-0.8,0.4l-0.2,0.1h0l-0.3,0.1
			c-0.1,0-0.2,0.1-0.3,0.1c-0.6,0.3-0.5,0.4,0,1L48.1,88.1L48.1,88.1z M35.1,89.6c0.2,0,0.3,0,0.5,0c0.3,0,0.5,0.1,0.5,0.3
			c0.7,3.9,1.5,7.9,2.1,11.7c2.3,13,5.2,13.3-6.8,18c-0.6,0.3-1.3,0.5-2,0.5c-0.6,0-1.2-0.2-1.8-0.5c-7.2-3.3-7.8-3.2-5.9-10.3
			c1.9-7.1,4.2-13,6.1-19.8c0.1-0.4,0.2-0.4,0.8-0.3H29c0.6,0.1,0.6,0.1,0.5,0.6c-0.1,0.5-0.1,1.2-0.2,1.9c-0.2,1-0.2,2.1-0.1,3.1
			c0.2,0.7,0.6,0.7,0.9,0.1c0.3-1,0.6-2.1,0.7-3.1c0.1-0.7,0.2-1.3,0.3-1.8c0.1-0.4,0-0.5,0.6-0.4c0.6,0,0.6,0.1,0.6,0.5
			c0.1,0.6,0.2,1.5,0.3,2.6c0.2,2.1,0.5,4.3,0.9,6.4c0.4,1.5,0.8,1.5,1,0c0.1-2.2,0-4.4-0.2-6.5c-0.1-1-0.1-1.7-0.2-2.3
			C34.2,89.5,34.2,89.6,35.1,89.6L35.1,89.6L35.1,89.6L35.1,89.6z M39.5,89.3l0.7-0.1c0.8-0.1,1-0.1,1.3,0.5c0.4,0.9,1,2.2,1.8,4.1
			C44,95.6,45,98,46,100.4c1,2.4,1.8,4.2,2.3,5.8c0.5,1.6,1.1,2.4-0.5,3.1c-1.2,0.6-3.1,1.3-5.1,2.1c0-0.2,0-0.4-0.1-0.6
			c-0.9-7-2.8-13.8-4.4-20.5C38,89.5,38.2,89.5,39.5,89.3L39.5,89.3L39.5,89.3z M44.6,88.3l0.6-0.2c0.5-0.2,0.7-0.1,1,0.4
			c2.2,3.3,6.2,9.3,6.1,10.8c-0.1,0.7-1.6,2.1-2.9,3.3c-1.9-4.3-4-8.8-5.9-13c-0.4-0.8-0.3-0.8,1-1.2L44.6,88.3L44.6,88.3z
			 M51.7,71.8c0.6-0.4,1-0.5,0.7,0.1c-3.3,6.2-30.5,14.8-34.4,2.1c-0.1-1.1,0.7-2.2,1.7-0.9C26.2,81.9,44.2,76.7,51.7,71.8
			L51.7,71.8L51.7,71.8z M56.1,72.8c2.5,9.6-24.5,14.2-27.3,11.5c-0.2-0.1-0.3-0.3-0.2-0.4c0-0.1,0.4-0.3,0.7-0.3
			c7.8-0.5,20.2-2.9,25.2-8.9c0.5-0.7,0.9-1.5,1.2-2.3C55.7,72.1,55.9,72.2,56.1,72.8L56.1,72.8L56.1,72.8z M17.1,76
			c-0.7,5,7.7,6.9,11.4,6.7c1.3-0.1,0.9-0.7-0.1-0.8c-4.6-0.6-8.4-2.1-10.6-5.4C17.4,75.8,17.2,75.6,17.1,76L17.1,76z M11.4,41.2
			c-0.1,0.7-1.3,0.9-2.4,0.1c-0.7-0.5-1.1-1.2-1.3-2.1c-0.1-0.8,0.1-1.7,0.5-2.4c0.9-1.7,3.6-2.3,3.6-2.3c-0.5-0.1-0.9-0.3-1.3-0.5
			c-0.4-0.4-0.1-1.3,0.5-1.2c0.2,0,0.3,0.3,0.9,0.2c0.2-0.1,0.4-0.2,0.6-0.4c0.1-0.2,0.2-0.4,0.2-0.6c0-0.1-0.1-0.3-0.2-0.4
			c-0.1-0.1-0.2-0.2-0.3-0.3c-0.1-0.1-0.3-0.1-0.4-0.1c-0.1,0-0.3,0-0.4,0c-0.5,0.2-0.4,0.3-0.7,0.4c0.2-0.3,0.5-0.5,0.8-0.7
			c0.3-0.2,0.7-0.2,1-0.2c0.4,0.1,0.8,0.2,1.2,0.5c0.3,0.3,0.5,0.7,0.6,1.1c0.2,1.1-0.1,1.3-1,1.9c-0.2,0.2,1,0.7,0.7,0.9
			C12.1,37.1,11.8,39.5,11.4,41.2L11.4,41.2L11.4,41.2z M52.4,36.3c-2.2-0.1-3.5-2.8-3.2-4.6c0.5-3.2,3.1-1.1,4.6,0.6
			C55.7,34.3,55,36.3,52.4,36.3L52.4,36.3L52.4,36.3z M51.6,44.4c-3.1-0.1-3.3-4.4-2.6-5.1c1.1-1,5.4,0.5,5.3,2.7
			c0,0.3-0.1,0.7-0.3,1c-0.1,0.3-0.4,0.6-0.6,0.8c-0.3,0.2-0.5,0.4-0.9,0.5C52.3,44.4,51.9,44.5,51.6,44.4L51.6,44.4z M51.8,52.4
			c-0.6-0.1-1.2-0.4-1.6-0.9c-0.4-0.5-0.7-1.1-0.7-1.7c0-1.2,1.2-1.9,2.5-1.6c0.6,0,1.2,0.3,1.6,0.7c0.4,0.4,0.7,1,0.7,1.6
			c-0.1,0.6-0.4,1.1-0.8,1.4C53,52.2,52.4,52.4,51.8,52.4L51.8,52.4z M66,42.3c0.4-0.7,0.7-1.5,0.7-2.3c0.1-1-0.2-2-0.7-2.8
			c-0.9-1.1-1.4-1.6-1.2-2.3c0.5-2.2,0.5-5.8-2.7-7.4c-0.6-0.3-0.4-1.1-0.2-1.3c2-3-2.2-7.9-2.9-9.2c-1.3-2.8-3-5.3-5.1-7.6
			c-2.7-2.5-13.3-8.7-16.6-9.2C36.6,0.1,35.9,0,35.2,0H35c-0.9,0-1.7,0.1-2.6,0.4c-1,0.4-0.9,1.1-0.1,1.3c1.7,0.4,3.5-0.8,5-0.3
			c2.3,0.6,4.5,1.9,6.2,3.5C44.3,5.7,45.1,6.4,46,7c7.1,5.1,5.4,5.2,8.1,14c0.1,0.3,0.1,0.6,0.1,0.8c0,0.3-0.2,0.5-0.3,0.8
			c-0.2,0.2-0.4,0.4-0.7,0.5c-0.3,0.1-0.5,0.2-0.8,0.1c-0.3-0.1-1,0.2-0.4,0.8c0.6,0.6,1.5,0.6,1.9,0.9c1.7,1.3,0.9,3.4-1.1,3.2
			c-4.2-0.3-3.8-4.1-5-6.3c-0.9-1.5-1.6-0.5-1.3,0.3c1.1,3.6-0.6,5.7-1.1,8.5c-0.6,3.4,0.2,4.3,0.4,6c0.2,1.9-1.4,2.9,0.4,7.1
			c1,1.7-0.1,5.1,0.3,7.2c2.5,8.8,16.6,9.5,16.9,3.5c0.1-1.7-0.1-1.8,1.5-3.1c0.5-0.4,0.9-0.9,1.1-1.5c0.3-0.6,0.4-1.2,0.4-1.8
			c0-0.6-0.1-1.3-0.3-1.9C65.3,44.1,65.1,43.6,66,42.3L66,42.3L66,42.3z M37,31c-0.7-0.6-1.5-1.1-2.3-1.6c-0.7-0.4-1.4-0.7-2.1-0.8
			c-0.5,0-1.1,0-1.6,0.1c-0.3,0.1-0.6,0.2-0.8,0.3c-0.1,0-0.1,0.1-0.2,0.2c0,0.1-0.1,0.1-0.1,0.2c0,0.1,0.1,0.2,0.2,0.2
			c0.1,0.1,0.2,0.1,0.2,0.3c0,0.2,0,0.4,0,0.6c0,0.1,0,0.3,0.1,0.4c0,0.1,0.1,0.2,0.2,0.3c0.3,0.2,0.6,0.3,0.9,0.3
			c0.2,0,0.3,0,0.5,0c0.2-0.1,0.3-0.1,0.4-0.3c0.1-0.1,0.2-0.2,0.2-0.4c0.1-0.1,0.1-0.3,0.1-0.4c0-0.2,0.1-0.4,0.1-0.6
			c0-0.1,0.1-0.1,0.2-0.1c0.2,0.1,0.4,0.2,0.6,0.4c0.3,0.2,0.6,0.5,0.8,0.9c0.3,0.4,0.6,0.9,1.2,1.1c0.6,0.1,1.2,0,1.7-0.3
			C37.7,31.6,37.6,31.5,37,31L37,31L37,31z M34,25.3c-1.7-0.6-3.6-0.9-5.4-0.7c-0.7,0.1-1.4,0.4-2,0.9c-0.6,0.4-1,1-1.3,1.7
			c-1.2,3.3,1.6,4.1,1.6,4.1c0.7-1,1.5-2,2.6-2.6c0.5-0.3,1.1-0.6,1.8-0.7c0.8-0.2,1.7-0.2,2.6-0.1c1,0,1.9,0.4,2.6,1
			c0.9,0.7,2,1.9,2.8,2.6c0.8,0.7,1.2,0.8,1.3,0.1c0.1-0.7,0-1.3-0.2-2c-0.2-0.6-0.5-1.2-1-1.7C38.1,26.7,36,26,34,25.3L34,25.3
			L34,25.3z M6.6,36.4c-0.5,0.4-1,0.7-1.6,0.9c-0.4,0.1-0.7,0.1-1.1,0c-0.4-0.1-0.7-0.3-1-0.5c-0.2-0.2-0.4-0.5-0.5-0.8
			c-0.1-0.3,0-0.6,0.1-0.9c0.8-1.5,3-1,3.4-1.8c0.1,0.6,0.2,1.2,0.4,1.8C6.6,35.4,6.7,35.9,6.6,36.4L6.6,36.4z M5,44.5
			c-1.2,0.6-3.6,0.8-3.8-1.9C1,40,4.5,40,5.1,40c0.1,0,0.2,0,0.4,0C5.2,41.5,5,43,5,44.5L5,44.5z M5.3,28.1c0.2-0.2,0.4-0.4,0.6-0.5
			c-0.1,0.8-0.1,1.5-0.1,2.3c-0.1,0-0.3,0-0.4-0.1c-0.1-0.1-0.3-0.1-0.4-0.3C4.8,29.1,4.9,28.6,5.3,28.1L5.3,28.1L5.3,28.1z
			 M36,66.2c-6.7,0-19,2.1-21.7-4.1c-1.8-6.6,9.7-3.3,9.8-4.8c0.1-2-5.6-1.8-7.4-1.7c-1.8,0.1-1.9-2.1-1.9-2.1s0.9-1.3,5.8-1.2
			c1.3,0,4.6,0.6,6.7,0.6c1.8-0.1,2.5-1-0.2-0.9c-1.5,0-2.7-0.9-4.7-1.9c-0.7-0.3-1.5-0.5-2.3-0.5c-0.8,0-1.6,0.1-2.3,0.5
			c-0.5-0.1-1-0.3-1.5-0.5c-0.2-0.1-0.3-0.3-0.5-0.5c-0.1-0.2-0.2-0.4-0.2-0.7c0-0.2,0-0.5,0.1-0.7c0.1-0.2,0.2-0.4,0.3-0.6
			c0.6-1,1.1-0.5,2-0.8c0.5-0.2,0.7-0.8,1.1-1.2c0.7,0.3,1.4,0.5,2.1,0.6c2.6,0.3,3-2.8,0.3-3.3c-2.9-0.6-8.2,0.2-5.7-5.8
			c0.6-1.5,3.8-8.2,3.1-9.5c-1.1-1.8-8.9-4.4-10.5-0.8c-0.1-4,3.5-13,5.5-15.4c0.5-0.6,0.9-1.3,0.5-1.8c-1.9-2.2-7.9,12.8-8.2,16.3
			c0,0.3-0.1,0.6-0.1,0.9c-0.9,0.4-1.7,0.9-2.5,1.6c-2.1,1.7-1.1,5.1-0.5,5.5c-0.3,0.3-1.6,0.8-2.3,1.8C0.3,35.9,0,36.9,0,37.8
			c0.1,0.8,0.3,1.6,0.5,2.4c0.2,0.8,0.3,1.7,0.4,2.6c0,0.3-0.2,1.1-0.2,1.1c-1,7,3.3,9.5,5.5,10.4c2.4,8.7,8.1,16.6,16.6,16.9
			c5.6,0.2,11.9-0.5,14.3-3.8C37.8,66.4,36.7,66.2,36,66.2L36,66.2L36,66.2z M22,87.9c-3,3.5-5.5,6.3-7,8.3
			c-0.9,1.2-1.5,1.9-1.4,2.6c0.1,0.6,0.3,1.1,0.6,1.6c0.3,0.5,0.7,0.9,1.2,1.2c2.6-4.4,5.4-8.5,8-12.9c0.3-0.5,0.4-0.5,0-0.7h-0.1
			h-0.1h-0.1H23h-0.1h-0.1h-0.1h0c-0.5-0.2-0.4-0.1-0.7,0.2L22,87.9L22,87.9z M25.4,88.9c-2.7,4.6-6.4,10.3-8.7,14.5
			c-1,1.8-1.5,2.7-1.3,3.5c0.4,1.4,2.6,2.5,4.2,3.2c2-7,4.5-14.3,6.4-21c0.1-0.3,0.1-0.3-0.2-0.4h0h-0.1
			C25.5,88.7,25.6,88.8,25.4,88.9L25.4,88.9L25.4,88.9z M42.2,118.6c0,0.7,0.1,1.4,0,2.2c1.7-0.6,3.4-1.3,5-2.2
			c1.5-0.9,1.1-1.5,0.6-3c-0.3-1-0.7-1.9-1-2.7l-1,0.5c-1.2,0.5-1.9,0.7-2.2,1c-0.4,0.3-0.3,0.5-0.3,0.9C43.3,117,43,118,42.2,118.6
			L42.2,118.6L42.2,118.6z M33.5,122.2c2-0.7,3.9-1.5,5.8-2.3c0.1,2.8-0.2,3.7-1.2,4.4c-2.8,1.6-8.5,4.3-9.3,4.3
			c-0.6-0.1-1.2-0.3-1.7-0.6c-0.9-0.5-2.1-1.2-3.3-2c-4.7-3-4.9-2.2-2.8-6.8c0.8,0.6,1.6,1.1,2.7,1.7c1.1,0.6,2.3,1.3,3.2,1.7
			c0.8,0.4,1.7,0.7,2.6,0.7c1,0,2-0.3,2.8-0.7L33.5,122.2L33.5,122.2L33.5,122.2z M48.8,111.8l1-0.6c1.1-0.7,1.7-1.1,1.8-1.7
			c0.1-0.7,0-1.5-0.2-2.1c-0.3-0.6-0.4-1.2-0.5-1.8c0-0.4,0.3-0.6,0.7-0.9c0.3-0.3,0.4-0.3,0.6-0.5c1.7,3.2,2.1,4.4,1.8,5.3
			c-0.3,0.9-1.4,1.6-4.7,3.6C49.1,112.6,49,112.3,48.8,111.8L48.8,111.8L48.8,111.8z M13.9,110.9c0.3-0.5,0.5-0.7,0.7-1.2
			c-0.2-0.1-0.3-0.2-0.5-0.4c-0.4-0.2-0.7-0.6-0.9-1c-0.2-0.4-0.3-0.9-0.2-1.3c0.2-1.3,0.7-2.5,1.4-3.6c-0.1-0.1-0.3-0.3-0.4-0.4
			c-0.8,1.6-1.4,2.8-2,4c-0.9,1.7-0.2,1.8,1.1,3C13.3,110.3,13.6,110.6,13.9,110.9L13.9,110.9L13.9,110.9z M18.5,119.2
			c0.2-0.5,0.4-1.1,0.6-1.7c0,0,0-0.1,0-0.1c-0.3-0.5-0.5-1-0.6-1.6c-0.1-0.6,0-1.3,0.1-1.9c0.1-0.4,0.2-0.8,0.3-1.3
			c-0.9-0.6-1.8-1.2-2.7-1.8c-0.7,1.4-1.3,2.2-1.7,3.1c-0.7,1.4-0.8,1.9,0,2.6C15.8,117.6,17.1,118.5,18.5,119.2L18.5,119.2
			L18.5,119.2z"/>
	</g>
	<g>
		<path class="st1" d="M95.9,98.9l0.7,0.7l1.7-1.7v10.3h2.2V96.6h-2.3L95.9,98.9z"/>
		<path class="st1" d="M107.8,100c0.6-0.3,1.1-0.8,1.7-1.2c0.5-0.6,0.8-1.2,0.8-1.9c0-0.8-0.4-1.5-0.9-2c-0.7-0.7-1.6-1-2.7-1
			c-1,0-2,0.4-2.8,1.1c-0.7,0.6-0.9,1.4-0.9,2.3c0,1.1,0.8,2.2,2.3,3.2c-1,0.6-2,1.4-2.6,2.5c-0.5,0.9-0.6,1.7-0.4,2.7
			c0.2,0.9,0.8,1.5,1.5,2c0.8,0.6,1.7,0.9,2.8,0.9c1.2,0.1,2.5-0.4,3.3-1.1c0.9-0.9,1.2-2,1.2-3.2c0-0.9-0.4-1.8-1-2.5
			C109.3,101,108.6,100.4,107.8,100z M104.7,96.7c0-0.5,0.2-0.9,0.5-1.2c0.4-0.4,0.9-0.7,1.4-0.6c0.6,0,1.1,0.2,1.4,0.7
			c0.3,0.4,0.5,0.9,0.5,1.3c-0.1,1.1-0.8,2.1-1.7,2.6C105.5,98.5,104.7,97.6,104.7,96.7z M108.2,106.4c-0.4,0.6-1.1,0.9-1.8,0.9
			c-0.6,0-1.2-0.3-1.6-0.8c-0.5-0.5-0.8-1-0.9-1.7c-0.2-0.7-0.1-1.4,0.3-2.1c0.4-0.8,0.9-1.4,1.6-1.9l0.6,0.4l0.6,0.4l0.9,0.9
			c0.6,0.6,0.9,1.3,0.9,2.1C108.9,105.4,108.7,105.9,108.2,106.4z"/>
		<path class="st1" d="M119.3,96.6h-1.7l-6.4,11.4h6v2.5h2.2V108h2.1v-0.9h-2.1L119.3,96.6L119.3,96.6z M117.1,107.1h-4.2l4.2-7.8
			V107.1z"/>
		<path class="st1" d="M128.1,99.9c-0.7-0.3-1.4-0.4-2.2-0.3c-0.7,0.1-1.3,0.4-1.9,0.9c0.4-1.1,0.9-2.2,1.6-3.2
			c0.3-0.4,0.7-0.9,1-1.5l0.5-0.8l0.5-0.8h-1.3c-0.3,0.3-0.6,0.7-0.9,0.9l-0.4,0.5l-0.4,0.6c-0.6,0.7-1.1,1.4-1.6,2.2
			c-1,1.7-1.7,3.7-1.7,5.8c0,1.1,0.5,2.3,1.2,3c0.9,0.8,2.1,1.2,3.2,1.1c1.3,0,2.6-0.5,3.5-1.3c0.8-0.9,1.2-2,1.2-3.1
			c0-0.9-0.3-1.8-0.8-2.6C129.4,100.7,128.8,100.2,128.1,99.9z M127.9,106.3c-0.5,0.7-1.1,1-2,1c-0.7,0-1.3-0.3-1.8-0.8
			c-0.6-0.7-0.8-1.5-0.8-2.4c-0.1-0.9,0.2-2,0.7-2.8c0.4-0.7,1.1-1,1.9-1s1.5,0.5,1.9,1.1c0.5,0.7,0.7,1.5,0.6,2.4
			C128.5,104.7,128.3,105.6,127.9,106.3z"/>
		<path class="st1" d="M94.4,69.1v-3.4H98c2.8,0.2,5-1.9,5.2-4.7c0.1-2.1-1-4.1-3-4.8c-0.7-0.4-1.4-0.6-2.3-0.5h-6.5v13.4H94.4z
			 M94.4,58.4h3.5c1.2,0,2.3,0.9,2.3,2.2v0.1c0,1.2-0.9,2.3-2.1,2.3h-3.7V58.4z"/>
		<path class="st1" d="M117.2,69.1l-0.2-0.4l-5.7-12.8v-0.2h-2.8v0.2l-5.7,12.8l-0.2,0.4h2.9l0.1-0.1l0.9-2.2h6.5l1,2.2l0.1,0.1
			H117.2z M107.7,64.2l2.2-5.3l2.2,5.3H107.7z"/>
		<path class="st1" d="M142.5,69.1c0.8,0,1.5-0.2,2.2-0.5c2.5-1.1,3.6-4,2.5-6.5c-0.9-1.8-2.7-2.9-4.7-2.8h-3.7v-3.5H136v13.4H142.5
			z M138.8,61.9h3.7c1.2,0,2.2,1,2.2,2.2c0,1.2-0.9,2.4-2.2,2.4h-0.1h-3.5L138.8,61.9L138.8,61.9z"/>
		<path class="st1" d="M151.2,55.7H149h-0.3V56v12.9v0.2h0.3h2.3h0.3v-0.2V56v-0.3H151.2z"/>
		<path class="st1" d="M133.1,68.9V56v-0.3h-0.3h-2.5h-0.1l-0.1,0.2l-4.2,6l-4.3-6l-0.1-0.2h-0.2H119h-0.3V56v12.9v0.2h0.3h2.2h0.3
			v-0.2v-8.6l3.8,5.3l0.1,0.1h0.1h0.9h0.2l0.1-0.1l3.8-5.3v8.6v0.2h0.3h2.2h0.3V68.9z"/>
		<path class="st1" d="M77.8,69.1h9v0.1l0.1,1.6h2.7v-4.3h-1.7V55.7h-9.7l-1.4,10.7H75v4.3h2.7L77.8,69.1z M80.6,58.3h4.3v8.2h-5.4
			L80.6,58.3z"/>
		<path class="st1" d="M98.6,89.2l-2.3-5.1h-0.9l-2.3,5.1H94l1.7-4.3h0.1l1.8,4.3H98.6z"/>
		<path class="st1" d="M110,89.2v-5.1h-1l-1.7,2.5l-1.8-2.5h-1v5.1h0.9v-3.8l1.7,2.4h0.3l1.7-2.4v3.8H110z"/>
		<path class="st1" d="M130.6,84.8c0.6,0,1.1,0.2,1.6,0.6l0.6-0.6c-0.6-0.6-1.3-0.9-2.2-0.9c-0.7,0-1.4,0.3-1.9,0.8
			c-1,1-1,2.8,0,3.8c0.6,0.5,1.2,0.8,1.9,0.8c0.8,0.1,1.6-0.3,2.2-0.9l-0.6-0.6c-0.5,0.4-1,0.6-1.6,0.6c-0.5,0-0.9-0.2-1.2-0.6
			c-0.4-0.3-0.6-0.8-0.5-1.2c0-0.5,0.2-0.9,0.5-1.2C129.7,85.1,130.2,84.8,130.6,84.8z"/>
		<path class="st1" d="M113.4,89.3c1.4,0.1,2.8-1,2.8-2.6c0-0.8-0.3-1.5-0.9-2.1c-0.5-0.6-1.2-0.9-2-0.8c-0.8,0-1.4,0.3-1.9,0.9
			c-0.5,0.5-0.7,1.1-0.8,1.8c0,0.7,0.2,1.3,0.7,1.8C111.9,89,112.6,89.2,113.4,89.3z M112.1,85.3c0.3-0.4,0.8-0.6,1.2-0.6
			c1,0,1.8,0.8,1.8,1.8c0,0.5-0.2,0.9-0.5,1.2c-0.3,0.4-0.9,0.6-1.3,0.6c-0.9,0-1.8-0.9-1.8-1.8C111.6,86.2,111.8,85.7,112.1,85.3z"
			/>
		<path class="st1" d="M142.9,86.4c0.1-0.1,0.3-0.2,0.4-0.4s0.2-0.4,0.2-0.6c0-0.4-0.1-0.7-0.4-0.9c-0.3-0.3-0.8-0.4-1.1-0.4h-2.7
			v5.1h2.8c0.5,0,0.9-0.2,1.2-0.5c0.3-0.3,0.5-0.7,0.5-1c0-0.3-0.1-0.6-0.3-0.9C143.3,86.6,143.1,86.4,142.9,86.4z M140.1,84.9h1.6
			c0.2,0,0.4,0.1,0.6,0.2c0.1,0.1,0.2,0.3,0.2,0.4c0,0.2-0.1,0.3-0.2,0.5c-0.1,0.1-0.3,0.1-0.4,0.2h-1.8V84.9z M142.6,88.1
			c-0.2,0.2-0.4,0.3-0.7,0.3h-1.8v-1.6h1.9c0.2,0,0.5,0.1,0.6,0.3c0.1,0.2,0.2,0.3,0.2,0.5C142.8,87.8,142.7,88,142.6,88.1z"/>
		<path class="st1" d="M122.8,88.4c0.5,0.6,1.2,0.9,2,0.9s1.4-0.3,2-0.9c0.9-1,0.9-2.8,0-3.8c-0.5-0.5-1.2-0.8-1.9-0.8
			c-0.8,0-1.5,0.3-2,0.9c-0.5,0.5-0.7,1.1-0.8,1.8C122,87.2,122.3,87.9,122.8,88.4z M123.4,85.3c0.3-0.4,0.9-0.6,1.3-0.6
			s0.9,0.2,1.2,0.6c0.4,0.3,0.6,0.8,0.5,1.2c0,0.5-0.2,0.9-0.5,1.2c-0.3,0.4-0.8,0.6-1.2,0.6s-0.9-0.2-1.3-0.6
			C122.8,87.1,122.8,86.1,123.4,85.3z"/>
		<path class="st1" d="M146.1,84.1l-2.3,5.1h1l0.4-0.9h2.8l0.4,0.9h0.9l-2.3-5.1H146.1z M145.5,87.4l0.9-2.5l1,2.5H145.5z"/>
		<path class="st1" d="M89,86.4c0.1-0.1,0.3-0.2,0.4-0.4c0.1-0.2,0.1-0.4,0.2-0.6c0-0.4-0.1-0.7-0.4-0.9c-0.4-0.3-0.8-0.4-1.1-0.4
			h-2.7v5.1h2.8c0.5,0,0.9-0.2,1.2-0.5c0.3-0.3,0.5-0.7,0.5-1c0-0.3-0.1-0.6-0.3-0.9C89.4,86.6,89.3,86.4,89,86.4z M86.3,84.9h1.6
			c0.2,0,0.4,0.1,0.5,0.2c0.1,0.1,0.2,0.3,0.2,0.4c0,0.2-0.1,0.3-0.2,0.5C88.3,86,88.1,86,88,86.1h-1.8L86.3,84.9L86.3,84.9z
			 M88.7,88.1c-0.2,0.2-0.4,0.3-0.6,0.3h-1.8v-1.6h1.9c0.2,0,0.5,0.1,0.6,0.3c0.2,0.1,0.2,0.3,0.2,0.5C89,87.8,88.9,88,88.7,88.1z"
			/>
		<path class="st1" d="M121.3,89.2v-5.1h-0.9V86h-2.7v-1.9h-0.9v5.1h0.9v-2.5h2.7v2.5H121.3z"/>
		<path class="st1" d="M103.8,86.6c0-0.7-0.3-1.4-0.8-1.9c-0.5-0.5-1.2-0.8-1.9-0.8c-0.8,0-1.5,0.3-2,0.9c-0.4,0.5-0.7,1.1-0.7,1.8
			c0,0.7,0.2,1.3,0.7,1.8c0.9,1.1,2.8,1.2,3.8,0.2l0.1-0.1C103.5,87.9,103.8,87.2,103.8,86.6z M102.4,87.8c-0.3,0.4-0.8,0.6-1.2,0.6
			c-0.5,0-0.9-0.2-1.3-0.6c-0.3-0.4-0.5-0.8-0.5-1.2c0-0.5,0.1-0.9,0.5-1.2c0.3-0.4,0.9-0.6,1.3-0.6c0.5,0,0.9,0.2,1.2,0.6
			c0.4,0.4,0.5,0.8,0.5,1.2C102.9,87.1,102.7,87.5,102.4,87.8z"/>
		<path class="st1" d="M135.8,84c-0.8,0-1.4,0.3-2,0.9c-0.5,0.5-0.7,1.1-0.8,1.8c0,0.7,0.2,1.3,0.8,1.8c0.5,0.6,1.2,0.9,2,0.9
			c0.8,0,1.4-0.3,2-0.9c1-1,1-2.7,0.1-3.7l-0.1-0.1C137.2,84.2,136.5,83.9,135.8,84z M137.1,87.9c-0.3,0.4-0.9,0.6-1.3,0.6
			s-0.9-0.2-1.3-0.6c-0.3-0.4-0.5-0.8-0.5-1.2c0-0.5,0.2-0.9,0.5-1.2c0.3-0.4,0.9-0.6,1.3-0.6s0.9,0.2,1.3,0.6
			c0.4,0.4,0.5,0.8,0.5,1.2C137.7,87.1,137.5,87.5,137.1,87.9z"/>
		<path class="st1" d="M83.9,88.1c-0.4,0-0.6,0.2-0.6,0.6c0,0.3,0.3,0.6,0.6,0.6c0.3,0,0.6-0.3,0.7-0.6
			C84.6,88.3,84.3,88.1,83.9,88.1z"/>
		<path class="st1" d="M80,86.6l-1.9-2.5h-0.9v5.1H78v-3.8h0.1l1.7,2.4h0.3l1.7-2.4v3.8h0.9v-5.1h-1L80,86.6z"/>
		<path class="st1" d="M91.1,88.1c-0.4,0-0.7,0.2-0.7,0.6s0.3,0.6,0.7,0.6c0.3,0,0.6-0.3,0.6-0.6S91.4,88.1,91.1,88.1
			C91.1,88.1,91.1,88.1,91.1,88.1z"/>
		<path class="st1" d="M110.9,74.6H110l-1.8,2.5l-1.8-2.5h-0.9v5.1h0.9v-3.8l1.7,2.5h0.3l1.7-2.5h0.1v3.8h0.9V74.6z"/>
		<path class="st1" d="M120.3,76.5h-2.8v-1.9h-0.9v5.1h0.9v-2.3h2.8v2.3h0.9v-5.1h-0.9V76.5z"/>
		<path class="st1" d="M122,74.6v5.1h0.9l2.9-3.8v3.8h0.9v-5.1h-0.8l-2.9,3.8v-3.8H122z"/>
		<path class="st1" d="M104.4,79.7v-5.1h-0.9l-2.8,3.8v-3.8h-0.9v5.1h0.9l2.9-3.8v3.8H104.4z"/>
		<path class="st1" d="M115.7,75.5v-0.9h-4v5.1h4.1v-0.9h-3.1v-1.4h2.8v-0.9h-2.8v-1.1H115.7z"/>
		<path class="st1" d="M129.4,31.3c0.8,0,1.5-0.3,2.1-0.9l-0.6-0.6c-0.4,0.4-0.9,0.6-1.5,0.6c-0.5,0-0.9-0.2-1.2-0.5
			c-0.4-0.4-0.6-0.9-0.6-1.3c0-0.5,0.2-0.9,0.6-1.2c0.3-0.4,0.8-0.6,1.2-0.5c0.6,0,1.1,0.2,1.5,0.6l0.6-0.6
			c-0.6-0.6-1.3-0.9-2.1-0.9s-1.4,0.3-1.9,0.9c-0.5,0.5-0.9,1.1-0.9,1.8C126.8,30.1,128,31.2,129.4,31.3z"/>
		<path class="st1" d="M102,28.9h2.8v2.3h0.9V26h-0.9v2H102v-2H101v5.1h0.9V28.9z"/>
		<path class="st1" d="M125.7,30.7c0.4-0.4,0.6-0.9,0.6-1.3s-0.2-0.9-0.5-1.2c-0.4-0.4-0.9-0.6-1.5-0.6h-1.5v-1.4h-0.9v5h2.5
			C124.8,31.1,125.3,31,125.7,30.7z M122.8,28.3h1.4c0.3,0,0.6,0.1,0.9,0.3c0.2,0.2,0.3,0.5,0.3,0.8s-0.1,0.6-0.4,0.9
			c-0.2,0.2-0.4,0.3-0.7,0.3h-1.6L122.8,28.3z"/>
		<path class="st1" d="M80.1,30.3h2.8l0.4,0.9h1L82,26h-1l-2.2,5.1h0.9L80.1,30.3z M81.4,27L81.4,27l1.1,2.5h-2.1L81.4,27z"/>
		<path class="st1" d="M107.4,26.9h3V26h-4v5.1h0.9V26.9z"/>
		<path class="st1" d="M133.1,28.9h1.1l1.4,2.3h1.1l-1.7-2.7l1.5-2.5h-1l-1.3,2h-1.1v-2h-0.9v5.1h0.9V28.9z"/>
		<path class="st1" d="M141.2,27.4v3.7h0.9V26h-0.8l-3,3.8V26h-0.8v5.1h0.8L141.2,27.4z"/>
		<path class="st1" d="M146.6,24.6H144v0.7h2.6V24.6z"/>
		<path class="st1" d="M146.7,27.4v3.7h0.9V26h-0.9l-2.8,3.8V26h-0.9v5.1h0.9L146.7,27.4z"/>
		<path class="st1" d="M90.4,31.1l1.5-2l1.4,2h1.1l-2-2.7l1.8-2.5h-1l-1.3,1.9L90.6,26h-1.1l1.8,2.5l-1.8,2.7H90.4z"/>
		<path class="st1" d="M96.3,30.3H99l0.4,0.9h1L98.2,26h-0.9L95,31.1h0.9L96.3,30.3z M97.6,27l1.1,2.5h-2.1L97.6,27z"/>
		<path class="st1" d="M118.4,27L118.4,27l1.8,4.2h1L119,26h-1l-2.2,5.1h0.9L118.4,27z"/>
		<path class="st1" d="M85.8,29.8h1.6c1,0,1.9-0.8,1.9-1.7V28c0-1-0.9-1.9-1.9-1.9H85v5h0.9L85.8,29.8z M85.8,27h1.5
			c0.3,0,0.6,0.1,0.9,0.3c0.2,0.2,0.3,0.5,0.3,0.8c0,0.6-0.5,1-1,1h-1.6V27z"/>
		<path class="st1" d="M115.1,30.4h-3.1V29h2.7v-0.9h-2.7V27h3V26h-4v5.1h4.1V30.4z"/>
		<path class="st1" d="M112.9,36.3v0.2l-5.7,12.8l-0.2,0.4h3.1v-0.2l0.9-2.2h6.5l0.9,2.2l0.2,0.2h2.9l-0.2-0.4l-5.7-12.8v-0.2H112.9
			z M116.5,44.6h-4.3l2.2-5.3L116.5,44.6z"/>
		<path class="st1" d="M94.5,36.5v12.9v0.2h0.3H105h0.2v-0.2v-2.2V47H105h-7.7v-3h6.5h0.4v-0.3v-2.1v-0.3h-0.4h-6.5v-2.5h7.4h0.3
			v-0.2v-2.2v-0.2h-0.3h-10h-0.3V36.5z"/>
		<path class="st1" d="M138.1,49.6v-3.4h3.6c2.8,0.1,5-2.1,5.1-4.8v-0.1c0-1.9-1.1-3.7-2.8-4.6c-0.7-0.3-1.4-0.5-2.3-0.5h-6.5v13.4
			H138.1z M138.1,38.8h3.5c1.2,0,2.3,0.9,2.3,2.2c0,0.1,0,0.1,0,0.2c0.1,1.2-0.9,2.2-2.1,2.3c0,0,0,0-0.1,0H138L138.1,38.8
			L138.1,38.8z"/>
		<path class="st1" d="M84.4,49.6h0.3h2.2h0.4v-0.2V38.8h4.5h0.2v-0.3v-2.1v-0.2h-0.2H80h-0.3v0.2v2.1v0.3H80h4.5v10.5V49.6z"/>
		<path class="st1" d="M125.3,49.6h0.4h2.2h0.3v-0.2V38.8h4.5h0.3v-0.3v-2.1v-0.2h-0.3H121h-0.4v0.2v2.1v0.3h0.4h4.4v10.5V49.6z"/>
	</g>
</g>
</svg>
